<svg width="60" height="60" viewBox="0 0 60 60" fill="none" xmlns="http://www.w3.org/2000/svg">
<circle cx="30" cy="30" r="30" fill="#535C91"/>
<path d="M46 30C46 21.1613 38.8387 14 30 14C21.1613 14 14 21.1613 14 30C14 37.9858 19.851 44.6052 27.5 45.8065V34.6252H23.4355V30H27.5V26.4748C27.5 22.4652 29.8871 20.2503 33.5432 20.2503C35.2942 20.2503 37.1252 20.5626 37.1252 20.5626V24.4981H35.1071C33.12 24.4981 32.5 25.7316 32.5 26.9968V30H36.9374L36.2277 34.6252H32.5V45.8065C40.149 44.6052 46 37.9858 46 30Z" fill="white"/>
</svg>
