<svg width="23" height="23" viewBox="0 0 23 23" fill="none" xmlns="http://www.w3.org/2000/svg">
<g clip-path="url(#clip0_164_477)">
<path d="M0.715291 7.50001C0.253045 8.74587 0 10.0933 0 11.5C0 12.9067 0.253045 14.2542 0.715291 15.5L11.5 16.5L22.2847 15.5C22.747 14.2542 23 12.9067 23 11.5C23 10.0933 22.747 8.74587 22.2847 7.50001L11.5 6.5L0.715291 7.50001Z" fill="#F0F0F0"/>
<path d="M11.5 0C6.55545 0 2.34016 3.12081 0.715332 7.50002H22.2848C20.6598 3.12081 16.4446 0 11.5 0Z" fill="#D80027"/>
<path d="M11.5 23C16.4446 23 20.6598 19.8792 22.2847 15.5H0.715332C2.34016 19.8792 6.55545 23 11.5 23Z" fill="#6DA544"/>
</g>
<defs>
<clipPath id="clip0_164_477">
<rect width="23" height="23" fill="white"/>
</clipPath>
</defs>
</svg>
