<svg width="592" height="102" viewBox="0 0 592 102" fill="none" xmlns="http://www.w3.org/2000/svg">
<g clip-path="url(#clip0_405_69)">
<path d="M291.18 101.51V88.64L286.11 101.51H284.87L279.78 88.64V101.51H276.87V84.84H280.97L285.49 96.29L289.99 84.84H294.09V101.51H291.18Z" fill="#68A8DE"/>
<path d="M314.2 101.51L312.98 98.29H305.38L304.16 101.51H300.86L307.37 84.84H311L317.51 101.51H314.21H314.2ZM309.18 87.76L306.2 95.71H312.16L309.18 87.76Z" fill="#68A8DE"/>
<path d="M322.67 93.19C322.67 87.94 326.55 84.57 331.37 84.57C334.6 84.57 336.71 86.12 338.03 88.02L335.67 89.4C334.78 88.15 333.21 87.18 331.37 87.18C328.09 87.18 325.66 89.68 325.66 93.2C325.66 96.72 328.09 99.22 331.37 99.22C333.06 99.22 334.55 98.45 335.29 97.72V95.15H330.32V92.57H338.17V98.79C336.56 100.62 334.22 101.84 331.36 101.84C326.54 101.84 322.66 98.42 322.66 93.19H322.67Z" fill="#68A8DE"/>
<path d="M357.67 101.51L356.45 98.29H348.85L347.63 101.51H344.33L350.84 84.84H354.47L360.98 101.51H357.68H357.67ZM352.65 87.76L349.67 95.71H355.63L352.65 87.76Z" fill="#68A8DE"/>
<path d="M367.08 101.51V99.14L375.53 87.42H367.08V84.85H379.33V87.2L370.83 98.95H379.5V101.52H367.08V101.51Z" fill="#68A8DE"/>
<path d="M388.84 83.32H386.98L390.46 79.72H392.94L388.84 83.32ZM387.32 101.52V84.85H390.23V101.52H387.32Z" fill="#68A8DE"/>
<path d="M410.28 101.51L401.63 89.59V101.51H398.72V84.84H401.7L410.17 96.39V84.84H413.08V101.51H410.27H410.28Z" fill="#68A8DE"/>
<path d="M442.87 101.51L437.33 94.46L435.86 96.18V101.5H432.95V84.83H435.86V92.75L442.34 84.83H445.94L439.21 92.68L446.46 101.5H442.86L442.87 101.51Z" fill="#68A8DE"/>
<path d="M462.81 101.51L459.16 95.29H456.25V101.51H453.34V84.84H460.62C463.9 84.84 466.06 86.96 466.06 90.06C466.06 93.16 464.12 94.63 462.11 94.96L466.18 101.51H462.8H462.81ZM463.08 90.04C463.08 88.44 461.89 87.42 460.25 87.42H456.25V92.72H460.25C461.89 92.72 463.08 91.67 463.08 90.05V90.04Z" fill="#68A8DE"/>
<path d="M485.57 101.51L484.35 98.29H476.75L475.53 101.51H472.23L478.74 84.84H482.37L488.88 101.51H485.58H485.57ZM480.55 87.76L477.57 95.71H483.53L480.55 87.76Z" fill="#68A8DE"/>
<path d="M494.43 100.04L495.8 97.82C496.45 98.57 497.36 99.22 498.63 99.22C500.39 99.22 501.54 98 501.54 96.2V84.85H504.45V96.22C504.45 100.02 502.07 101.82 498.86 101.82C497.15 101.82 495.63 101.3 494.44 100.05L494.43 100.04Z" fill="#68A8DE"/>
<path d="M514.45 83.32H512.59L516.07 79.72H518.55L514.45 83.32ZM512.93 101.52V84.85H515.84V101.52H512.93Z" fill="#68A8DE"/>
<path d="M535.89 101.51L527.25 89.59V101.51H524.34V84.84H527.32L535.79 96.39V84.84H538.7V101.51H535.89Z" fill="#68A8DE"/>
<path d="M562.49 101.51L556.38 84.84H562.07L565.65 96.06L569.23 84.84H574.92L568.81 101.51H562.5H562.49Z" fill="#C20E1A"/>
<path d="M584.13 101.51V98.84H576.16V94.97L582.2 84.85H589.16V94.45H591.07V98.85H589.16V101.52H584.14L584.13 101.51ZM584.13 89.19L581 94.44H584.13V89.19Z" fill="#C20E1A"/>
<path d="M88.5899 46.56C93.5099 41.04 96.6599 32.68 98.0599 21.49H84.4399C83.7899 26.57 82.7499 30.63 81.3199 33.67C79.8899 36.71 77.9299 38.91 75.4399 40.26C72.9499 41.61 69.7699 42.29 65.8899 42.29H65.1099V0H51.8799V73.24H65.1099V54.83H68.3299C71.0799 54.83 73.6399 54.54 76.0099 53.98L85.7099 73.24H101.38L87.1099 48.07C87.6199 47.59 88.1099 47.09 88.5899 46.56ZM133.22 61.62H132.34L120.04 21.48H106.56L124.28 73.24H141.27L158.99 21.48H145.51L133.21 61.62H133.22ZM212.27 42.28C212.27 35.44 209.99 30.24 205.43 26.68C200.87 23.12 193.91 21.27 184.53 21.14L173.25 20.99L172.27 33L185.5 33.34C190.15 33.47 193.66 34.18 196.02 35.46C198.38 36.75 199.56 38.77 199.56 41.54V41.69C198.47 41.45 197.39 41.25 196.31 41.1C194.24 40.81 191.79 40.66 188.96 40.66C181.6 40.66 175.92 42.21 171.92 45.3C167.92 48.39 165.91 52.84 165.91 58.63C165.91 63.61 167.44 67.45 170.5 70.15C173.56 72.85 177.84 74.2 183.34 74.2C186.53 74.2 189.27 73.7 191.57 72.71C193.87 71.72 195.65 70.22 196.92 68.22C197.96 66.58 198.58 64.59 198.84 62.29H200.04L200.88 73.72L219.43 73.23V62.49L212.25 61.42V42.28H212.27ZM198.13 57.37C197.17 59.03 195.73 60.4 193.81 61.47C191.89 62.54 189.5 63.08 186.63 63.08C184.25 63.08 182.45 62.62 181.21 61.69C179.97 60.76 179.35 59.42 179.35 57.66C179.35 53.75 182.77 51.8 189.6 51.8C191.42 51.8 193.16 51.84 194.82 51.92C196.23 51.99 197.81 52.22 199.53 52.58C199.47 54.22 199.01 55.81 198.11 57.36L198.13 57.37ZM262.51 20.5C254.21 20.5 249.8 24.72 249.28 33.15H247.45L245.91 21.48H225.7V32.81H234.68V61.91H223.74V73.24H259.97V61.91H247.86V50.97C247.86 45.21 248.66 40.76 250.25 37.64C251.84 34.52 254.25 32.95 257.48 32.95C259.95 32.95 261.75 33.62 262.88 34.95C264 36.28 264.56 38.48 264.56 41.54H277.74C277.74 34.74 276.43 29.53 273.81 25.92C271.19 22.31 267.42 20.5 262.51 20.5ZM325.33 61.39C323.62 61.57 322.02 61.66 320.52 61.66C315.86 61.66 312.52 60.76 310.49 58.97C308.46 57.18 307.44 54.32 307.44 50.38V33.63H330.39V21.47H307.44V5.86H294.26V21.48H281.86V33.64H294.26V51.66C294.26 59.54 296.25 65.27 300.22 68.85C304.19 72.43 310.64 74.22 319.56 74.22C321.87 74.22 324.04 74.12 326.08 73.93C328.12 73.74 330.21 73.44 332.35 73.05L331.18 60.7C329 60.99 327.05 61.23 325.35 61.41L325.33 61.39ZM366.96 20.5C359.41 20.5 353.56 22.84 349.41 27.53C345.26 32.22 343.18 38.79 343.18 47.26C343.18 55.73 345.62 62.62 350.5 67.26C355.38 71.9 362.3 74.22 371.25 74.22C373.37 74.22 375.79 74.14 378.53 73.98C381.26 73.82 384.29 73.44 387.61 72.86L386.34 60.36C383.96 60.78 381.64 61.12 379.36 61.36C377.08 61.6 374.77 61.73 372.43 61.73C367.22 61.73 363.21 60.46 360.39 57.92C358.83 56.51 357.71 54.73 357.02 52.6H389.86C390.06 50.48 390.15 48.25 390.15 45.91C390.15 37.64 388.13 31.34 384.1 27.01C380.06 22.68 374.35 20.52 366.96 20.52V20.5ZM356.37 43.4C356.74 40.47 357.62 38.1 359.02 36.3C360.92 33.84 363.6 32.61 367.05 32.61C370.24 32.61 372.72 33.54 374.5 35.39C376.27 37.25 377.16 39.91 377.16 43.4H356.37ZM442.52 61.39C440.81 61.57 439.21 61.66 437.71 61.66C433.05 61.66 429.71 60.76 427.68 58.97C425.64 57.18 424.63 54.32 424.63 50.38V33.63H447.58V21.47H424.63V5.86H411.45V21.48H399.05V33.64H411.45V51.66C411.45 59.54 413.44 65.27 417.41 68.85C421.38 72.43 427.83 74.22 436.75 74.22C439.06 74.22 441.23 74.12 443.27 73.93C445.3 73.73 447.4 73.44 449.54 73.05L448.37 60.7C446.19 60.99 444.24 61.23 442.54 61.41L442.52 61.39ZM501.68 27.5C497.58 22.83 491.8 20.49 484.35 20.49C476.9 20.49 471.12 22.83 467.02 27.5C462.92 32.17 460.87 38.79 460.87 47.35C460.87 55.91 462.92 62.49 467.02 67.17C471.12 71.85 476.9 74.2 484.35 74.2C491.8 74.2 497.58 71.86 501.68 67.17C505.78 62.48 507.83 55.87 507.83 47.35C507.83 38.83 505.78 32.17 501.68 27.5ZM491.72 57.92C489.99 60.41 487.54 61.66 484.35 61.66C481.16 61.66 478.74 60.41 477 57.92C475.26 55.43 474.39 51.91 474.39 47.35C474.39 42.79 475.26 39.23 477 36.75C478.74 34.28 481.19 33.04 484.35 33.04C487.51 33.04 490 34.28 491.72 36.75C493.44 39.22 494.31 42.76 494.31 47.35C494.31 51.94 493.45 55.43 491.72 57.92Z" fill="#272741"/>
<path d="M12.2311 33.1116C17.977 32.179 21.8788 26.7649 20.9461 21.019C20.0135 15.2732 14.5994 11.3713 8.85353 12.304C3.10766 13.2367 -0.794201 18.6507 0.138486 24.3966C1.07117 30.1425 6.48522 34.0443 12.2311 33.1116Z" fill="#322B80"/>
<path d="M10.54 64.04C16.3611 64.04 21.08 59.3211 21.08 53.5C21.08 47.6789 16.3611 42.96 10.54 42.96C4.71892 42.96 0 47.6789 0 53.5C0 59.3211 4.71892 64.04 10.54 64.04Z" fill="#BB151B"/>
<path d="M550.853 33.0893C556.599 32.1566 560.5 26.7425 559.568 20.9966C558.635 15.2508 553.221 11.3489 547.475 12.2816C541.729 13.2143 537.827 18.6283 538.76 24.3742C539.693 30.1201 545.107 34.0219 550.853 33.0893Z" fill="#BB151B"/>
<path d="M549.17 64.04C554.991 64.04 559.71 59.3211 559.71 53.5C559.71 47.6789 554.991 42.96 549.17 42.96C543.349 42.96 538.63 47.6789 538.63 53.5C538.63 59.3211 543.349 64.04 549.17 64.04Z" fill="#322B80"/>
</g>
<defs>
<clipPath id="clip0_405_69">
<rect width="591.06" height="101.84" fill="white"/>
</clipPath>
</defs>
</svg>
