<svg width="48" height="43" viewBox="0 0 48 43" fill="none" xmlns="http://www.w3.org/2000/svg">
<path fill-rule="evenodd" clip-rule="evenodd" d="M44.5587 34.0204L27.5558 34.0133C27.5558 32.5486 30.8636 30.7427 34.5037 28.7553C35.5229 28.1989 36.5681 27.6282 37.5741 27.0469C37.728 26.9579 37.9168 26.8543 38.1342 26.735C40.717 25.3177 47.3332 21.687 47.3332 14.0997C47.3332 6.46349 40.193 0.666748 32.0487 0.666748C24.3688 0.666748 17.693 6.18992 17.693 6.18992C17.693 6.18992 17.7637 6.42575 19.6283 11.1377C20.3449 12.9465 22.1152 13.779 23.9727 12.8616C24.1678 12.7654 24.3665 12.6667 24.5685 12.5664C26.9565 11.3804 29.7863 9.97502 32.0511 9.97502C35.3724 9.97502 37.6873 12.1918 37.6873 14.5808C37.6873 17.354 35.1391 18.7441 30.7674 21.1288L30.7674 21.1288C30.1463 21.4676 29.4883 21.8265 28.7957 22.2123C23.4023 25.2145 17.1178 29.9122 17.1178 38.0767V39.9846C17.1178 41.6283 18.4497 42.9608 20.0927 42.9608H46.9749V36.4377C46.9749 35.1029 45.8929 34.0204 44.5587 34.0204ZM6.30743 8.88067C3.1982 8.88067 0.666504 11.4371 0.666504 14.5784C0.666504 17.7196 3.1982 20.276 6.30743 20.276C9.41665 20.276 11.9483 17.7196 11.9483 14.5784C11.9483 11.4371 9.41665 8.88067 6.30743 8.88067ZM0.666504 31.8177C0.666504 28.6764 3.1982 26.1223 6.30743 26.1223C9.41665 26.1223 11.9483 28.674 11.9483 31.8177C11.9483 34.9613 9.41665 37.5154 6.30743 37.5154C3.1982 37.5154 0.666504 34.9589 0.666504 31.8177Z" fill="#272525"/>
</svg>
