<svg width="177" height="161" viewBox="0 0 177 161" fill="none" xmlns="http://www.w3.org/2000/svg">
<path fill-rule="evenodd" clip-rule="evenodd" d="M166.122 126.236L101.77 126.209C101.77 120.665 114.289 113.83 128.066 106.308C131.923 104.203 135.879 102.043 139.687 99.8424C140.269 99.5057 140.984 99.1136 141.806 98.6622L141.806 98.6621C151.582 93.2978 176.622 79.5566 176.622 50.8405C176.622 21.9393 149.599 0 118.774 0C89.7075 0 64.4413 20.9039 64.4413 20.9039C64.4413 20.9039 64.709 21.7965 71.766 39.6299C74.4782 46.4759 81.1784 49.6267 88.2086 46.1546C88.9467 45.7906 89.6991 45.4169 90.4633 45.0374C99.5013 40.5488 110.212 35.2296 118.783 35.2296C131.354 35.2296 140.115 43.6197 140.115 52.6614C140.115 63.1573 130.47 68.4183 113.925 77.444C111.574 78.7263 109.084 80.0847 106.462 81.5448C86.0496 92.9072 62.2644 110.687 62.2644 141.588V148.809C62.2644 155.03 67.3052 160.073 73.5236 160.073H175.266V135.384C175.266 130.332 171.171 126.236 166.122 126.236ZM21.3495 31.0877C9.58187 31.0877 0 40.7631 0 52.6521C0 64.5411 9.58187 74.2165 21.3495 74.2165C33.1172 74.2165 42.6991 64.5411 42.6991 52.6521C42.6991 40.7631 33.1172 31.0877 21.3495 31.0877ZM0 117.899C0 106.01 9.58187 96.3433 21.3495 96.3433C33.1172 96.3433 42.6991 106.001 42.6991 117.899C42.6991 129.797 33.1172 139.463 21.3495 139.463C9.58187 139.463 0 129.788 0 117.899Z" fill="white"/>
</svg>
