<svg width="76" height="76" viewBox="0 0 76 76" fill="none" xmlns="http://www.w3.org/2000/svg">
<circle cx="38" cy="38" r="38" fill="#535C91"/>
<path fill-rule="evenodd" clip-rule="evenodd" d="M56.9364 19.0615C51.5211 13.6462 42.7273 13.6462 37.3119 19.0615C33.9731 22.3975 32.6938 27.0156 33.4682 31.3388L22.4021 43.1935C20.4845 45.2473 20.5412 48.4528 22.5298 50.4385L22.8191 50.7278L16.5046 57.065C15.8294 57.743 15.8323 58.8437 16.5103 59.5188C17.1882 60.194 18.2889 60.1911 18.964 59.5131L25.2729 53.1787C27.2274 55.0567 30.3024 55.1276 32.3392 53.3234L44.5683 42.5098C48.917 43.3211 53.5749 42.0446 56.9364 38.6831C62.3545 33.2678 62.3545 24.4739 56.9364 19.0586V19.0615ZM30.0414 50.7278C29.3521 51.3377 28.3025 51.3065 27.6501 50.6541L24.9807 47.9847C24.3141 47.3181 24.2971 46.2458 24.9382 45.5593L34.7107 35.0861C35.3603 36.3825 36.2255 37.6023 37.3091 38.6831C38.3559 39.7327 39.5331 40.578 40.7869 41.222L30.0386 50.725L30.0414 50.7278ZM39.7657 36.235C36.7815 33.2508 35.99 28.8992 37.3914 25.1888C39.0509 31.9033 44.1002 36.9527 50.8119 38.6093C47.1015 40.0107 42.7499 39.2192 39.7657 36.235ZM54.9734 35.7102C46.7667 35.3641 40.6366 29.234 40.2877 21.0245C44.3754 17.4587 50.5935 17.6204 54.4826 21.5124C58.3746 25.4044 58.5391 31.6196 54.9705 35.7074L54.9734 35.7102Z" fill="white"/>
</svg>
