<svg width="176" height="110" viewBox="0 0 176 110" fill="none" xmlns="http://www.w3.org/2000/svg">
<g clip-path="url(#clip0_164_777)">
<path d="M11.601 97.1866C11.601 97.5395 11.3295 97.8834 10.9042 97.8834C10.5965 97.8834 10.3974 97.7476 10.2888 97.5033L8.94959 94.7434H6.64209V97.1866C6.64209 97.5757 6.33442 97.8834 5.94531 97.8834C5.5562 97.8834 5.24854 97.5757 5.24854 97.1866V90.8613C5.24854 90.4722 5.5562 90.1646 5.94531 90.1646H8.88624C10.7865 90.1646 11.601 91.1056 11.601 92.454C11.601 93.3498 11.2118 94.119 10.3431 94.49L11.5195 96.888C11.5648 96.9785 11.601 97.078 11.601 97.1866ZM9.07627 91.4405H6.63304V93.5398H9.07627C9.84544 93.5398 10.1893 92.9788 10.1893 92.463C10.1893 91.9472 9.84544 91.4405 9.07627 91.4405Z" fill="#CC1B59"/>
<path d="M17.6548 97.9284C15.4106 97.9284 13.7366 96.191 13.7366 93.974C13.7366 91.7569 15.4106 90.0195 17.6548 90.0195C19.899 90.0195 21.573 91.766 21.573 93.974C21.573 96.1819 19.899 97.9284 17.6548 97.9284ZM17.6548 91.2864C16.0984 91.2864 15.1482 92.5261 15.1482 93.974C15.1482 95.4218 16.0984 96.6706 17.6548 96.6706C19.2112 96.6706 20.1614 95.4308 20.1614 93.974C20.1614 92.5171 19.2112 91.2864 17.6548 91.2864Z" fill="#CC1B59"/>
<path d="M29.1288 97.7929H24.3962C24.0252 97.7929 23.7356 97.5033 23.7356 97.1414C23.7356 96.9875 23.7899 96.8699 23.8804 96.7522L27.7986 91.4586H24.4052C24.0523 91.4586 23.7537 91.1599 23.7537 90.807C23.7537 90.4541 24.0523 90.1646 24.4052 90.1646H29.0926C29.4455 90.1646 29.7442 90.4541 29.7442 90.807C29.7442 90.9609 29.6899 91.0966 29.5994 91.2142L25.6811 96.5079H29.1288C29.4817 96.5079 29.7803 96.7884 29.7803 97.1504C29.7803 97.5124 29.4908 97.8019 29.1288 97.8019V97.7929Z" fill="#CC1B59"/>
<path d="M38.1328 97.8833C37.7437 97.8833 37.436 97.5575 37.436 97.1684V94.508H33.8164V97.1684C33.8164 97.5575 33.5178 97.8833 33.1287 97.8833C32.7396 97.8833 32.4138 97.5575 32.4138 97.1684V90.7798C32.4138 90.3907 32.7305 90.0649 33.1287 90.0649C33.5268 90.0649 33.8164 90.3907 33.8164 90.7798V93.205H37.436V90.7798C37.436 90.3907 37.7437 90.0649 38.1328 90.0649C38.5219 90.0649 38.8296 90.3907 38.8296 90.7798V97.1684C38.8296 97.5575 38.5219 97.8833 38.1328 97.8833Z" fill="#CC1B59"/>
<path d="M42.5215 97.7926C42.1324 97.7926 41.8066 97.4758 41.8066 97.0867V90.7886C41.8066 90.3995 42.1234 90.0737 42.5215 90.0737C42.9197 90.0737 43.2092 90.3995 43.2092 90.7886V96.4804H46.5574C46.9103 96.4804 47.2089 96.77 47.2089 97.132C47.2089 97.4939 46.9103 97.7835 46.5574 97.7926H42.5215Z" fill="#CC1B59"/>
<path d="M54.3486 96.1097H50.9552L50.3037 97.5032C50.177 97.7295 50.0141 97.8833 49.7155 97.8833C49.2993 97.8833 49.0549 97.5575 49.0549 97.2318C49.0549 97.1413 49.073 97.0508 49.1273 96.9603L52.0592 90.436C52.1587 90.2097 52.3578 90.0649 52.6564 90.0649C52.9551 90.0649 53.1451 90.1916 53.2537 90.436L56.1856 96.9603C56.2308 97.0508 56.2489 97.1413 56.2489 97.2318C56.2489 97.5666 55.9955 97.8833 55.5883 97.8833C55.2897 97.8833 55.1268 97.7476 55.0092 97.5032L54.3577 96.1097H54.3486ZM52.6564 91.9743L51.462 94.879H53.8419L52.6474 91.9743H52.6564Z" fill="#CC1B59"/>
<path d="M61.2983 97.9286C60.3662 97.9286 59.3165 97.6481 58.6469 97.1323C58.4207 96.9513 58.2578 96.716 58.2578 96.4717C58.2578 96.1188 58.484 95.8745 58.846 95.8745C58.9727 95.8745 59.0903 95.9107 59.1989 95.974C59.8142 96.3631 60.2396 96.707 61.3164 96.707C62.3932 96.707 62.8547 96.2636 62.8547 95.7478C62.8547 95.1868 62.4113 94.8972 61.0359 94.5352C58.9636 93.9832 58.3483 93.3227 58.3483 92.1734C58.3483 90.7799 59.5518 90.0288 61.3707 90.0288C61.7869 90.0288 62.348 90.1012 62.8366 90.2369C63.3615 90.3908 64.0311 90.7165 64.0311 91.178C64.0311 91.4857 63.8501 91.8115 63.461 91.8115C63.3705 91.8115 63.28 91.8024 63.1895 91.7572C62.6647 91.5129 62.1127 91.2776 61.3888 91.2776C60.3662 91.2776 59.7509 91.549 59.7509 92.1463C59.7509 92.7073 60.2124 92.9064 61.5879 93.3046C63.1533 93.7661 64.2664 94.2095 64.2664 95.6754C64.2664 97.0056 63.2619 97.9377 61.3073 97.9377L61.2983 97.9286Z" fill="#CC1B59"/>
<path d="M75.8401 96.1097H72.4467L71.7952 97.5032C71.6685 97.7295 71.5056 97.8833 71.207 97.8833C70.7907 97.8833 70.5464 97.5575 70.5464 97.2318C70.5464 97.1413 70.5645 97.0508 70.6188 96.9603L73.5507 90.436C73.6502 90.2097 73.8493 90.0649 74.1479 90.0649C74.4465 90.0649 74.6456 90.1916 74.7451 90.436L77.677 96.9603C77.7223 97.0508 77.7404 97.1413 77.7404 97.2318C77.7404 97.5666 77.487 97.8833 77.0798 97.8833C76.7812 97.8833 76.6183 97.7476 76.5006 97.5032L75.8491 96.1097H75.8401ZM74.1479 91.9743L72.9534 94.879H75.3333L74.1389 91.9743H74.1479Z" fill="#CC1B59"/>
<path d="M88.925 91.4764H86.9614V97.1683C86.9614 97.5574 86.6447 97.8831 86.2556 97.8831C85.8665 97.8831 85.5678 97.5574 85.5678 97.1683V91.4764H83.5951C83.2241 91.4764 82.9346 91.1778 82.9346 90.8249C82.9346 90.472 83.2241 90.1553 83.5951 90.1553H88.925C89.287 90.1553 89.5856 90.4539 89.5856 90.8249C89.5856 91.1959 89.296 91.4764 88.925 91.4764Z" fill="#CC1B59"/>
<path d="M96.8699 97.7929H92.5716C92.1825 97.7929 91.8567 97.4852 91.8567 97.0961V90.8613C91.8567 90.4722 92.1825 90.1646 92.5716 90.1646H96.6979C97.0599 90.1646 97.3585 90.436 97.3585 90.807C97.3585 91.178 97.0599 91.4586 96.6979 91.4586H93.2593V93.2774H95.1505C95.5034 93.2774 95.8021 93.567 95.8021 93.929C95.8021 94.2909 95.5034 94.5714 95.1505 94.5714H93.2593V96.4989H96.8699C97.2409 96.4989 97.5304 96.7794 97.5304 97.1504C97.5304 97.5214 97.2318 97.7929 96.8699 97.7929Z" fill="#CC1B59"/>
<path d="M100.652 97.7926C100.263 97.7926 99.9375 97.4758 99.9375 97.0867V90.7886C99.9375 90.3995 100.263 90.0737 100.652 90.0737C101.041 90.0737 101.34 90.3995 101.34 90.7886V96.4804H104.688C105.041 96.4804 105.34 96.77 105.34 97.132C105.34 97.4939 105.041 97.7835 104.688 97.7926H100.652Z" fill="#CC1B59"/>
<path d="M112.661 97.7929H108.362C107.973 97.7929 107.647 97.4852 107.647 97.0961V90.8613C107.647 90.4722 107.973 90.1646 108.362 90.1646H112.489C112.851 90.1646 113.149 90.436 113.149 90.807C113.149 91.178 112.851 91.4586 112.489 91.4586H109.05V93.2774H110.941C111.294 93.2774 111.593 93.567 111.593 93.929C111.593 94.2909 111.294 94.5714 110.941 94.5714H109.05V96.4989H112.661C113.032 96.4989 113.321 96.7794 113.321 97.1504C113.321 97.5214 113.023 97.7929 112.661 97.7929Z" fill="#CC1B59"/>
<path d="M122.044 90.9967L119.212 97.503C119.112 97.7292 118.868 97.883 118.615 97.883C118.361 97.883 118.126 97.7473 118.018 97.503L115.176 90.9967C115.14 90.9153 115.122 90.8248 115.122 90.7343C115.122 90.3904 115.411 90.0737 115.764 90.0737C116.018 90.0737 116.271 90.2095 116.371 90.4538L118.606 95.7837L120.868 90.4538C120.968 90.2185 121.203 90.0737 121.447 90.0737C121.818 90.0737 122.099 90.3723 122.099 90.7253C122.099 90.8158 122.081 90.9062 122.044 90.9967Z" fill="#CC1B59"/>
<path d="M125.211 97.8832C124.822 97.8832 124.497 97.5575 124.497 97.1684V90.7798C124.497 90.3907 124.822 90.0649 125.211 90.0649C125.601 90.0649 125.899 90.3907 125.899 90.7798V97.1684C125.899 97.5575 125.601 97.8832 125.211 97.8832ZM126.297 88.2551C126.297 88.3727 126.243 88.4994 126.171 88.5899L125.655 89.2867C125.555 89.4224 125.438 89.5039 125.211 89.5039C124.949 89.5039 124.659 89.2595 124.659 88.979C124.659 88.8433 124.714 88.7256 124.795 88.6351L125.338 87.9384C125.438 87.8026 125.564 87.7212 125.772 87.7212C126.071 87.7212 126.297 87.9293 126.297 88.2551Z" fill="#CC1B59"/>
<path d="M134.125 97.7929H129.392C129.021 97.7929 128.732 97.5033 128.732 97.1414C128.732 96.9875 128.786 96.8699 128.876 96.7522L132.795 91.4586H129.401C129.048 91.4586 128.75 91.1599 128.75 90.807C128.75 90.4541 129.048 90.1646 129.401 90.1646H134.089C134.442 90.1646 134.74 90.4541 134.74 90.807C134.74 90.9609 134.686 91.0966 134.595 91.2142L130.677 96.5079H134.125C134.478 96.5079 134.776 96.7884 134.776 97.1504C134.776 97.5124 134.487 97.8019 134.125 97.8019V97.7929Z" fill="#CC1B59"/>
<path d="M138.188 97.8833C137.799 97.8833 137.473 97.5575 137.473 97.1684V90.7798C137.473 90.3907 137.79 90.0649 138.188 90.0649C138.586 90.0649 138.876 90.3907 138.876 90.7798V97.1684C138.876 97.5575 138.577 97.8833 138.188 97.8833Z" fill="#CC1B59"/>
<path d="M146.658 96.1097H143.264L142.613 97.5032C142.486 97.7295 142.323 97.8833 142.025 97.8833C141.608 97.8833 141.364 97.5575 141.364 97.2318C141.364 97.1413 141.391 97.0508 141.436 96.9603L144.368 90.436C144.477 90.2097 144.667 90.0649 144.966 90.0649C145.264 90.0649 145.454 90.1916 145.563 90.436L148.495 96.9603C148.54 97.0508 148.558 97.1413 148.558 97.2318C148.558 97.5666 148.305 97.8833 147.897 97.8833C147.599 97.8833 147.436 97.7476 147.318 97.5032L146.667 96.1097H146.658ZM144.966 91.9743L143.771 94.879H146.151L144.956 91.9743H144.966Z" fill="#CC1B59"/>
<path d="M7.99018 110C7.05813 110 6.00844 109.711 5.33882 109.195C5.11259 109.014 4.94971 108.779 4.94971 108.534C4.94971 108.181 5.17593 107.937 5.53789 107.937C5.66458 107.937 5.77317 107.973 5.89081 108.037C6.50614 108.426 6.93144 108.769 8.00828 108.769C9.08511 108.769 9.54661 108.326 9.54661 107.81C9.54661 107.249 9.10321 106.96 7.72776 106.598C5.65553 106.046 5.0402 105.385 5.0402 104.236C5.0402 102.842 6.24372 102.091 8.06257 102.091C8.47883 102.091 9.03987 102.164 9.52852 102.299C10.0534 102.453 10.723 102.779 10.723 103.241C10.723 103.548 10.542 103.874 10.1529 103.874C10.0624 103.874 9.97192 103.865 9.88143 103.82C9.35658 103.575 8.80459 103.34 8.08067 103.34C7.05813 103.34 6.4428 103.612 6.4428 104.209C6.4428 104.77 6.9043 104.969 8.27975 105.367C9.84523 105.829 10.9583 106.272 10.9583 107.738C10.9583 109.068 9.95382 110.009 7.99923 110.009L7.99018 110Z" fill="#CC1B59"/>
<path d="M14.2522 109.856C13.8631 109.856 13.5374 109.539 13.5374 109.15V102.852C13.5374 102.462 13.8541 102.137 14.2522 102.137C14.6504 102.137 14.94 102.453 14.94 102.852V108.543H18.2881C18.641 108.543 18.9396 108.833 18.9396 109.195C18.9396 109.557 18.641 109.846 18.2881 109.856H14.2522Z" fill="#CC1B59"/>
<path d="M24.1699 110C21.9258 110 20.2517 108.263 20.2517 106.046C20.2517 103.829 21.9258 102.091 24.1699 102.091C26.4141 102.091 28.0882 103.838 28.0882 106.046C28.0882 108.254 26.4141 110 24.1699 110ZM24.1699 103.358C22.6135 103.358 21.6634 104.598 21.6634 106.046C21.6634 107.494 22.6135 108.742 24.1699 108.742C25.7264 108.742 26.6765 107.503 26.6765 106.046C26.6765 104.589 25.7264 103.358 24.1699 103.358Z" fill="#CC1B59"/>
<path d="M36.7389 103.069L33.9066 109.575C33.807 109.801 33.5627 109.955 33.3093 109.955C33.056 109.955 32.8207 109.819 32.7121 109.575L29.8707 103.069C29.8345 102.987 29.8164 102.897 29.8164 102.806C29.8164 102.462 30.106 102.146 30.4589 102.146C30.7123 102.146 30.9656 102.281 31.0652 102.526L33.3003 107.855L35.5625 102.526C35.6621 102.299 35.8974 102.146 36.1417 102.146C36.5127 102.146 36.7932 102.444 36.7932 102.797C36.7932 102.888 36.7751 102.978 36.7389 103.069Z" fill="#CC1B59"/>
<path d="M44.1682 109.855H39.8699C39.4808 109.855 39.155 109.548 39.155 109.159V102.924C39.155 102.535 39.4717 102.227 39.8699 102.227H43.9963C44.3582 102.227 44.6568 102.499 44.6568 102.87C44.6568 103.241 44.3582 103.521 43.9963 103.521H40.5576V105.34H42.4489C42.8018 105.34 43.1004 105.629 43.1004 105.991C43.1004 106.353 42.8018 106.634 42.4489 106.634H40.5576V108.561H44.1682C44.5392 108.561 44.8288 108.842 44.8288 109.213C44.8288 109.584 44.5302 109.855 44.1682 109.855Z" fill="#CC1B59"/>
<path d="M53.0182 109.955C52.801 109.955 52.6381 109.874 52.5114 109.711L48.557 104.716V109.294C48.557 109.666 48.2584 109.946 47.8964 109.946C47.5344 109.946 47.2449 109.647 47.2449 109.294V102.797C47.2449 102.444 47.5073 102.137 47.9326 102.137C48.1136 102.137 48.3127 102.236 48.4122 102.381L52.3666 107.376V102.806C52.3666 102.453 52.629 102.146 53.0182 102.146C53.4073 102.146 53.6787 102.453 53.6787 102.806V109.304C53.6787 109.656 53.4073 109.955 53.0182 109.955Z" fill="#CC1B59"/>
<path d="M59.4067 110C58.4746 110 57.4249 109.711 56.7553 109.195C56.5291 109.014 56.3662 108.779 56.3662 108.534C56.3662 108.181 56.5924 107.937 56.9544 107.937C57.0811 107.937 57.1987 107.973 57.3073 108.037C57.9226 108.426 58.3479 108.769 59.4248 108.769C60.5016 108.769 60.9631 108.326 60.9631 107.81C60.9631 107.249 60.5197 106.96 59.1443 106.598C57.072 106.046 56.4567 105.385 56.4567 104.236C56.4567 102.842 57.6602 102.091 59.4791 102.091C59.8953 102.091 60.4564 102.164 60.945 102.299C61.4699 102.453 62.1395 102.779 62.1395 103.241C62.1395 103.548 61.9585 103.874 61.5694 103.874C61.4789 103.874 61.3884 103.865 61.2979 103.82C60.7731 103.575 60.2211 103.34 59.4972 103.34C58.4746 103.34 57.8593 103.612 57.8593 104.209C57.8593 104.77 58.3208 104.969 59.6963 105.367C61.2617 105.829 62.3748 106.272 62.3748 107.738C62.3748 109.068 61.3703 110.009 59.4157 110.009L59.4067 110Z" fill="#CC1B59"/>
<path d="M65.6687 109.955C65.2796 109.955 64.9539 109.638 64.9539 109.24V102.852C64.9539 102.462 65.2706 102.137 65.6687 102.137C66.0669 102.137 66.3565 102.453 66.3565 102.852V105.657L69.8041 102.327C69.9308 102.2 70.0937 102.146 70.2656 102.146C70.6095 102.146 70.9443 102.417 70.9443 102.788C70.9443 103.005 70.8719 103.168 70.7362 103.295L68.7454 105.213L71.071 108.923C71.1524 109.041 71.1886 109.186 71.1886 109.313C71.1886 109.62 70.9715 109.955 70.5462 109.955C70.2837 109.955 70.0756 109.856 69.967 109.666L67.7772 106.145L66.3655 107.512V109.24C66.3655 109.629 66.0669 109.955 65.6778 109.955H65.6687Z" fill="#CC1B59"/>
<path d="M78.446 108.172H75.0526L74.4011 109.575C74.2744 109.801 74.1115 109.955 73.8129 109.955C73.3967 109.955 73.1523 109.638 73.1523 109.304C73.1523 109.213 73.1704 109.123 73.2247 109.032L76.1566 102.517C76.2562 102.291 76.4552 102.155 76.7539 102.155C77.0525 102.155 77.2425 102.281 77.3511 102.517L80.283 109.032C80.3282 109.123 80.3463 109.213 80.3463 109.304C80.3463 109.638 80.0929 109.955 79.6857 109.955C79.3871 109.955 79.2242 109.819 79.1066 109.575L78.4551 108.172H78.446ZM76.7539 104.037L75.5594 106.942H77.9393L76.7448 104.037H76.7539Z" fill="#CC1B59"/>
<path d="M138.541 12.6867C135.708 12.6867 135.093 14.1708 133.727 16.2611C133.727 16.2611 118.226 42.9648 118.054 43.2272C117.882 43.4896 117.737 43.4806 117.61 43.2182C115.973 40.0058 105.023 17.0122 104.136 15.2657C103.177 13.3835 101.576 12.6867 99.5485 12.6867H66.6644L68.1484 0.633432C68.1484 0.633432 68.2661 0 67.5602 0C66.963 0 57.6968 0 57.6968 0H57.6153C53.8871 0.244324 50.8105 3.11287 50.2947 6.84107L49.5798 12.6777H38.2685C13.7095 12.6867 5.24861 30.3504 4.20797 39.68L0.0454172 73.5596C0.0454172 73.5596 -0.379887 75.4327 1.39372 75.4327H12.696C15.5555 75.4327 17.1662 73.08 17.4377 70.8448L21.0482 41.6165C21.3559 39.5262 23.5729 29.6446 38.2685 29.6446H47.4985L45.6706 44.5574C45.3087 46.7654 43.9061 58.2034 51.1815 66.8452C54.4844 70.7634 60.8006 75.4327 72.1752 75.4327H72.4286C77.7132 75.4056 78.772 75.3784 79.885 75.3784C80.998 75.3784 81.2333 74.012 81.2333 74.012C81.2333 74.012 81.3509 73.2519 81.921 67.8587C82.473 62.6645 80.1112 59.0087 73.9488 59.0087C67.7864 59.0087 72.0576 59.0449 72.0576 59.0449C68.2117 59.0449 65.2165 57.769 63.7868 56.0949C61.606 53.5431 62.1761 48.72 62.4113 47.2178L64.574 29.6446H91.8026C91.8026 29.6446 110.742 67.0443 113.14 71.7045C115.538 76.3648 117.846 76.7539 120.578 72.2113C122.995 68.1935 148.287 24.5229 153.96 14.6594C155.146 12.6053 153.318 12.6777 153.318 12.6777H138.532L138.541 12.6867Z" fill="#CC1B59"/>
<path d="M165.977 38.5671C170.981 38.5671 175.053 34.4951 175.053 29.5C175.053 24.5049 170.981 20.4238 165.977 20.4238C160.973 20.4238 156.91 24.4959 156.91 29.5C156.91 34.5041 160.982 38.5671 165.977 38.5671Z" fill="#CC1B59"/>
<path d="M165.977 67.6594C170.981 67.6594 175.053 63.5964 175.053 58.5923C175.053 53.5882 170.981 49.5161 165.977 49.5161C160.973 49.5161 156.91 53.5882 156.91 58.5923C156.91 63.5964 160.982 67.6594 165.977 67.6594Z" fill="#CC1B59"/>
</g>
<defs>
<clipPath id="clip0_164_777">
<rect width="175.053" height="110" fill="white"/>
</clipPath>
</defs>
</svg>
