<svg width="23" height="23" viewBox="0 0 23 23" fill="none" xmlns="http://www.w3.org/2000/svg">
<g clip-path="url(#clip0_164_478)">
<path d="M11.5 23C17.8513 23 23 17.8513 23 11.5C23 5.14873 17.8513 0 11.5 0C5.14873 0 0 5.14873 0 11.5C0 17.8513 5.14873 23 11.5 23Z" fill="#F0F0F0"/>
<path d="M11.5 23C17.8512 23 23 17.8512 23 11.5C23 10.0933 22.747 8.7458 22.2847 7.50003H0.715291C0.253045 8.7458 0 10.0933 0 11.5C0 17.8512 5.14877 23 11.5 23Z" fill="#0052B4"/>
<path d="M11.5 23C16.4446 23 20.6599 19.8792 22.2847 15.5H0.715332C2.3402 19.8792 6.55544 23 11.5 23Z" fill="#D80027"/>
<path d="M2.97363 6.5V12.2368C2.97363 15.5001 7.23676 16.5 7.23676 16.5C7.23676 16.5 11.4998 15.5001 11.4998 12.2368V6.5H2.97363Z" fill="#F0F0F0"/>
<path d="M3.97363 6.5V12.2368C3.97363 12.6199 4.05872 12.9817 4.22726 13.3209H10.2462C10.4148 12.9817 10.4998 12.6199 10.4998 12.2368V6.5H3.97363Z" fill="#D80027"/>
<path d="M9.23679 10.5H7.73685V9.5H8.73686V8.49999H7.73685V7.50003H6.73685V8.49999H5.73689V9.5H6.73685V10.5H5.23682V11.5H6.73685V12.5H7.73685V11.5H9.23679V10.5Z" fill="#F0F0F0"/>
<path d="M5.5915 14.7169C6.23591 15.1218 6.89796 15.357 7.2369 15.4615C7.57584 15.357 8.23789 15.1218 8.8823 14.7169C9.53214 14.3084 9.98769 13.8413 10.2464 13.3209C9.96105 13.1191 9.61295 13 9.23691 13C9.09999 13 8.96698 13.0163 8.83908 13.046C8.56807 12.4302 7.95287 12 7.23695 12C6.52103 12 5.90578 12.4302 5.63481 13.046C5.50691 13.0163 5.37386 13 5.23698 13C4.86094 13 4.51284 13.1191 4.22754 13.3209C4.48606 13.8413 4.94162 14.3084 5.5915 14.7169Z" fill="#0052B4"/>
</g>
<defs>
<clipPath id="clip0_164_478">
<rect width="23" height="23" fill="white"/>
</clipPath>
</defs>
</svg>
