<svg width="80" height="80" viewBox="0 0 80 80" fill="none" xmlns="http://www.w3.org/2000/svg">
<rect width="80" height="80" rx="40" fill="white"/>
<g clip-path="url(#clip0_596_257)">
<mask id="mask0_596_257" style="mask-type:luminance" maskUnits="userSpaceOnUse" x="12" y="22" width="56" height="35">
<path d="M67.6987 22H12V57H67.6987V22Z" fill="white"/>
</mask>
<g mask="url(#mask0_596_257)">
<path d="M15.6912 52.923C15.6912 53.0353 15.6048 53.1447 15.4694 53.1447C15.3715 53.1447 15.3082 53.1015 15.2736 53.0238L14.8475 52.1456H14.1133V52.923C14.1133 53.0468 14.0154 53.1447 13.8916 53.1447C13.7678 53.1447 13.6699 53.0468 13.6699 52.923V50.9104C13.6699 50.7866 13.7678 50.6887 13.8916 50.6887H14.8274C15.432 50.6887 15.6912 50.9881 15.6912 51.4172C15.6912 51.7022 15.5673 51.9469 15.2909 52.065L15.6652 52.828C15.6796 52.8568 15.6912 52.8884 15.6912 52.923ZM14.8878 51.0947H14.1104V51.7626H14.8878C15.1326 51.7626 15.242 51.5841 15.242 51.42C15.242 51.2559 15.1326 51.0947 14.8878 51.0947Z" fill="#CC1B59"/>
<path d="M17.6173 53.159C16.9032 53.159 16.3706 52.6062 16.3706 51.9008C16.3706 51.1954 16.9032 50.6426 17.6173 50.6426C18.3314 50.6426 18.864 51.1983 18.864 51.9008C18.864 52.6033 18.3314 53.159 17.6173 53.159ZM17.6173 51.0457C17.1221 51.0457 16.8198 51.4401 16.8198 51.9008C16.8198 52.3615 17.1221 52.7588 17.6173 52.7588C18.1125 52.7588 18.4149 52.3644 18.4149 51.9008C18.4149 51.4373 18.1125 51.0457 17.6173 51.0457Z" fill="#CC1B59"/>
<path d="M21.2683 53.1159H19.7624C19.6444 53.1159 19.5522 53.0238 19.5522 52.9086C19.5522 52.8596 19.5695 52.8222 19.5983 52.7848L20.845 51.1004H19.7653C19.653 51.1004 19.558 51.0054 19.558 50.8931C19.558 50.7808 19.653 50.6887 19.7653 50.6887H21.2567C21.369 50.6887 21.4641 50.7808 21.4641 50.8931C21.4641 50.9421 21.4468 50.9853 21.418 51.0227L20.1713 52.707H21.2683C21.3806 52.707 21.4756 52.7963 21.4756 52.9115C21.4756 53.0267 21.3834 53.1188 21.2683 53.1188V53.1159Z" fill="#CC1B59"/>
<path d="M24.1332 53.1447C24.0094 53.1447 23.9114 53.041 23.9114 52.9172V52.0707H22.7598V52.9172C22.7598 53.041 22.6647 53.1447 22.5409 53.1447C22.4171 53.1447 22.3135 53.041 22.3135 52.9172V50.8844C22.3135 50.7606 22.4142 50.657 22.5409 50.657C22.6676 50.657 22.7598 50.7606 22.7598 50.8844V51.6561H23.9114V50.8844C23.9114 50.7606 24.0094 50.657 24.1332 50.657C24.257 50.657 24.3549 50.7606 24.3549 50.8844V52.9172C24.3549 53.041 24.257 53.1447 24.1332 53.1447Z" fill="#CC1B59"/>
<path d="M25.5297 53.1158C25.4059 53.1158 25.3022 53.015 25.3022 52.8912V50.8873C25.3022 50.7635 25.403 50.6598 25.5297 50.6598C25.6564 50.6598 25.7485 50.7635 25.7485 50.8873V52.6983H26.8139C26.9262 52.6983 27.0212 52.7904 27.0212 52.9056C27.0212 53.0208 26.9262 53.1129 26.8139 53.1158H25.5297Z" fill="#CC1B59"/>
<path d="M29.2928 52.5803H28.213L28.0057 53.0237C27.9654 53.0957 27.9136 53.1447 27.8186 53.1447C27.6862 53.1447 27.6084 53.041 27.6084 52.9374C27.6084 52.9086 27.6142 52.8798 27.6314 52.851L28.5643 50.7751C28.596 50.7031 28.6593 50.657 28.7543 50.657C28.8494 50.657 28.9098 50.6973 28.9444 50.7751L29.8773 52.851C29.8916 52.8798 29.8974 52.9086 29.8974 52.9374C29.8974 53.0439 29.8168 53.1447 29.6872 53.1447C29.5922 53.1447 29.5404 53.1015 29.5029 53.0237L29.2957 52.5803H29.2928ZM28.7543 51.2645L28.3743 52.1887H29.1315L28.7515 51.2645H28.7543Z" fill="#CC1B59"/>
<path d="M31.5041 53.1591C31.2075 53.1591 30.8735 53.0698 30.6604 52.9057C30.5885 52.8481 30.5366 52.7733 30.5366 52.6955C30.5366 52.5832 30.6086 52.5055 30.7238 52.5055C30.7641 52.5055 30.8015 52.517 30.8361 52.5372C31.0318 52.661 31.1672 52.7704 31.5098 52.7704C31.8524 52.7704 31.9993 52.6293 31.9993 52.4652C31.9993 52.2867 31.8582 52.1945 31.4206 52.0794C30.7612 51.9037 30.5654 51.6936 30.5654 51.3279C30.5654 50.8845 30.9483 50.6455 31.5271 50.6455C31.6595 50.6455 31.838 50.6685 31.9935 50.7117C32.1605 50.7607 32.3736 50.8643 32.3736 51.0112C32.3736 51.1091 32.316 51.2127 32.1922 51.2127C32.1634 51.2127 32.1346 51.2098 32.1058 51.1955C31.9388 51.1177 31.7632 51.0429 31.5328 51.0429C31.2075 51.0429 31.0117 51.1292 31.0117 51.3193C31.0117 51.4978 31.1585 51.5611 31.5962 51.6878C32.0943 51.8346 32.4484 51.9757 32.4484 52.4422C32.4484 52.8654 32.1288 53.162 31.5069 53.162L31.5041 53.1591Z" fill="#CC1B59"/>
<path d="M36.1311 52.5803H35.0514L34.8441 53.0237C34.8038 53.0957 34.752 53.1447 34.657 53.1447C34.5245 53.1447 34.4468 53.041 34.4468 52.9374C34.4468 52.9086 34.4525 52.8798 34.4698 52.851L35.4027 50.7751C35.4343 50.7031 35.4977 50.657 35.5927 50.657C35.6877 50.657 35.7511 50.6973 35.7827 50.7751L36.7156 52.851C36.73 52.8798 36.7358 52.9086 36.7358 52.9374C36.7358 53.0439 36.6552 53.1447 36.5256 53.1447C36.4306 53.1447 36.3787 53.1015 36.3413 53.0237L36.134 52.5803H36.1311ZM35.5927 51.2645L35.2126 52.1887H35.9699L35.5898 51.2645H35.5927Z" fill="#CC1B59"/>
<path d="M40.2942 51.1061H39.6694V52.9172C39.6694 53.041 39.5687 53.1446 39.4449 53.1446C39.3211 53.1446 39.226 53.041 39.226 52.9172V51.1061H38.5983C38.4803 51.1061 38.3882 51.0111 38.3882 50.8988C38.3882 50.7866 38.4803 50.6858 38.5983 50.6858H40.2942C40.4094 50.6858 40.5044 50.7808 40.5044 50.8988C40.5044 51.0169 40.4123 51.1061 40.2942 51.1061Z" fill="#CC1B59"/>
<path d="M42.8222 53.1159H41.4545C41.3307 53.1159 41.2271 53.018 41.2271 52.8942V50.9104C41.2271 50.7866 41.3307 50.6887 41.4545 50.6887H42.7674C42.8826 50.6887 42.9776 50.7751 42.9776 50.8931C42.9776 51.0112 42.8826 51.1004 42.7674 51.1004H41.6733V51.6792H42.2751C42.3874 51.6792 42.4824 51.7713 42.4824 51.8865C42.4824 52.0016 42.3874 52.0909 42.2751 52.0909H41.6733V52.7042H42.8222C42.9402 52.7042 43.0323 52.7934 43.0323 52.9115C43.0323 53.0295 42.9373 53.1159 42.8222 53.1159Z" fill="#CC1B59"/>
<path d="M44.0257 53.1158C43.9019 53.1158 43.7983 53.015 43.7983 52.8912V50.8873C43.7983 50.7635 43.9019 50.6598 44.0257 50.6598C44.1495 50.6598 44.2446 50.7635 44.2446 50.8873V52.6983H45.3099C45.4222 52.6983 45.5173 52.7904 45.5173 52.9056C45.5173 53.0208 45.4222 53.1129 45.3099 53.1158H44.0257Z" fill="#CC1B59"/>
<path d="M47.8468 53.1159H46.479C46.3552 53.1159 46.2515 53.018 46.2515 52.8942V50.9104C46.2515 50.7866 46.3552 50.6887 46.479 50.6887H47.7921C47.9073 50.6887 48.0021 50.7751 48.0021 50.8931C48.0021 51.0112 47.9073 51.1004 47.7921 51.1004H46.6979V51.6792H47.2996C47.4119 51.6792 47.507 51.7713 47.507 51.8865C47.507 52.0016 47.4119 52.0909 47.2996 52.0909H46.6979V52.7042H47.8468C47.9649 52.7042 48.0568 52.7934 48.0568 52.9115C48.0568 53.0295 47.962 53.1159 47.8468 53.1159Z" fill="#CC1B59"/>
<path d="M50.8323 50.9535L49.9312 53.0237C49.8994 53.0956 49.8218 53.1446 49.7413 53.1446C49.6605 53.1446 49.5857 53.1014 49.5513 53.0237L48.6471 50.9535C48.6356 50.9276 48.6299 50.8988 48.6299 50.87C48.6299 50.7606 48.7218 50.6598 48.8342 50.6598C48.915 50.6598 48.9955 50.703 49.0273 50.7807L49.7384 52.4766L50.4582 50.7807C50.49 50.7059 50.5647 50.6598 50.6424 50.6598C50.7604 50.6598 50.8498 50.7548 50.8498 50.8671C50.8498 50.8959 50.8441 50.9247 50.8323 50.9535Z" fill="#CC1B59"/>
<path d="M51.84 53.1447C51.7162 53.1447 51.6128 53.041 51.6128 52.9172V50.8845C51.6128 50.7607 51.7162 50.657 51.84 50.657C51.9641 50.657 52.0589 50.7607 52.0589 50.8845V52.9172C52.0589 53.041 51.9641 53.1447 51.84 53.1447ZM52.1855 50.0812C52.1855 50.1186 52.1683 50.1589 52.1454 50.1877L51.9812 50.4094C51.9494 50.4526 51.9122 50.4785 51.84 50.4785C51.7566 50.4785 51.6643 50.4008 51.6643 50.3115C51.6643 50.2683 51.6818 50.2309 51.7076 50.2021L51.8804 49.9804C51.9122 49.9372 51.9523 49.9113 52.0185 49.9113C52.1136 49.9113 52.1855 49.9775 52.1855 50.0812Z" fill="#CC1B59"/>
<path d="M54.6759 53.1159H53.17C53.0519 53.1159 52.96 53.0238 52.96 52.9086C52.96 52.8596 52.9771 52.8222 53.0058 52.7848L54.2527 51.1004H53.1728C53.0605 51.1004 52.9657 51.0054 52.9657 50.8931C52.9657 50.7808 53.0605 50.6887 53.1728 50.6887H54.6645C54.7768 50.6887 54.8716 50.7808 54.8716 50.8931C54.8716 50.9421 54.8544 50.9853 54.8255 51.0227L53.5788 52.707H54.6759C54.7882 52.707 54.8831 52.7963 54.8831 52.9115C54.8831 53.0267 54.7911 53.1188 54.6759 53.1188V53.1159Z" fill="#CC1B59"/>
<path d="M55.9687 53.1447C55.8449 53.1447 55.7412 53.041 55.7412 52.9172V50.8844C55.7412 50.7606 55.8421 50.657 55.9687 50.657C56.0953 50.657 56.1876 50.7606 56.1876 50.8844V52.9172C56.1876 53.041 56.0925 53.1447 55.9687 53.1447Z" fill="#CC1B59"/>
<path d="M58.6639 52.5803H57.584L57.3769 53.0237C57.3365 53.0957 57.2846 53.1447 57.1898 53.1447C57.0571 53.1447 56.9795 53.041 56.9795 52.9374C56.9795 52.9086 56.9881 52.8798 57.0024 52.851L57.9353 50.7751C57.97 50.7031 58.0304 50.657 58.1256 50.657C58.2204 50.657 58.2809 50.6973 58.3155 50.7751L59.2484 52.851C59.2628 52.8798 59.2685 52.9086 59.2685 52.9374C59.2685 53.0439 59.188 53.1447 59.0582 53.1447C58.9634 53.1447 58.9115 53.1015 58.8739 53.0237L58.6668 52.5803H58.6639ZM58.1256 51.2645L57.7454 52.1887H58.5026L58.1224 51.2645H58.1256Z" fill="#CC1B59"/>
<path d="M14.5421 57C14.2456 57 13.9116 56.9081 13.6985 56.7439C13.6265 56.6863 13.5747 56.6115 13.5747 56.5336C13.5747 56.4212 13.6467 56.3436 13.7619 56.3436C13.8022 56.3436 13.8367 56.3551 13.8741 56.3754C14.0699 56.4992 14.2053 56.6083 14.5479 56.6083C14.8905 56.6083 15.0374 56.4674 15.0374 56.3032C15.0374 56.1247 14.8963 56.0327 14.4586 55.9176C13.7993 55.7419 13.6035 55.5316 13.6035 55.166C13.6035 54.7225 13.9864 54.4835 14.5652 54.4835C14.6976 54.4835 14.8761 54.5067 15.0316 54.5497C15.1986 54.5987 15.4117 54.7024 15.4117 54.8494C15.4117 54.9471 15.3541 55.0508 15.2303 55.0508C15.2015 55.0508 15.1727 55.048 15.1439 55.0337C14.9769 54.9557 14.8013 54.8809 14.5709 54.8809C14.2456 54.8809 14.0498 54.9675 14.0498 55.1574C14.0498 55.3359 14.1966 55.3992 14.6343 55.5259C15.1324 55.6729 15.4865 55.8138 15.4865 56.2803C15.4865 56.7035 15.1669 57.0029 14.545 57.0029L14.5421 57Z" fill="#CC1B59"/>
<path d="M16.5346 56.9542C16.4108 56.9542 16.3071 56.8533 16.3071 56.7295V54.7256C16.3071 54.6015 16.4079 54.4981 16.5346 54.4981C16.6613 54.4981 16.7534 54.5987 16.7534 54.7256V56.5364H17.8187C17.931 56.5364 18.026 56.6287 18.026 56.7438C18.026 56.859 17.931 56.951 17.8187 56.9542H16.5346Z" fill="#CC1B59"/>
<path d="M19.6905 57C18.9765 57 18.4438 56.4473 18.4438 55.7419C18.4438 55.0365 18.9765 54.4835 19.6905 54.4835C20.4046 54.4835 20.9373 55.0394 20.9373 55.7419C20.9373 56.4445 20.4046 57 19.6905 57ZM19.6905 54.8867C19.1953 54.8867 18.893 55.2812 18.893 55.7419C18.893 56.2027 19.1953 56.5997 19.6905 56.5997C20.1858 56.5997 20.4881 56.2055 20.4881 55.7419C20.4881 55.2783 20.1858 54.8867 19.6905 54.8867Z" fill="#CC1B59"/>
<path d="M23.6894 54.7947L22.7882 56.8647C22.7566 56.9367 22.6788 56.9857 22.5982 56.9857C22.5176 56.9857 22.4427 56.9424 22.4082 56.8647L21.5041 54.7947C21.4926 54.7686 21.4868 54.7399 21.4868 54.711C21.4868 54.6015 21.579 54.501 21.6912 54.501C21.7719 54.501 21.8525 54.5439 21.8842 54.6219L22.5953 56.3175L23.3151 54.6219C23.3468 54.5497 23.4217 54.501 23.4994 54.501C23.6175 54.501 23.7067 54.5958 23.7067 54.7081C23.7067 54.7371 23.7009 54.7657 23.6894 54.7947Z" fill="#CC1B59"/>
<path d="M26.0536 56.9539H24.686C24.5622 56.9539 24.4585 56.8562 24.4585 56.7324V54.7486C24.4585 54.6248 24.5593 54.5268 24.686 54.5268H25.9989C26.1141 54.5268 26.2091 54.6133 26.2091 54.7314C26.2091 54.8494 26.1141 54.9385 25.9989 54.9385H24.9048V55.5173H25.5066C25.6188 55.5173 25.7139 55.6092 25.7139 55.7244C25.7139 55.8396 25.6188 55.929 25.5066 55.929H24.9048V56.5422H26.0536C26.1717 56.5422 26.2638 56.6316 26.2638 56.7496C26.2638 56.8677 26.1688 56.9539 26.0536 56.9539Z" fill="#CC1B59"/>
<path d="M28.8697 56.9857C28.8006 56.9857 28.7487 56.9599 28.7084 56.908L27.4502 55.3187V56.7753C27.4502 56.8937 27.3552 56.9828 27.24 56.9828C27.1248 56.9828 27.0327 56.8877 27.0327 56.7753V54.7081C27.0327 54.5958 27.1162 54.4981 27.2515 54.4981C27.3091 54.4981 27.3725 54.5296 27.4041 54.5757L28.6623 56.1651V54.711C28.6623 54.5987 28.7458 54.501 28.8697 54.501C28.9935 54.501 29.0798 54.5987 29.0798 54.711V56.7785C29.0798 56.8905 28.9935 56.9857 28.8697 56.9857Z" fill="#CC1B59"/>
<path d="M30.902 57C30.6054 57 30.2714 56.9081 30.0584 56.7439C29.9864 56.6863 29.9346 56.6115 29.9346 56.5336C29.9346 56.4212 30.0065 56.3436 30.1217 56.3436C30.162 56.3436 30.1995 56.3551 30.234 56.3754C30.4298 56.4992 30.5651 56.6083 30.9078 56.6083C31.2504 56.6083 31.3972 56.4674 31.3972 56.3032C31.3972 56.1247 31.2561 56.0327 30.8185 55.9176C30.1591 55.7419 29.9634 55.5316 29.9634 55.166C29.9634 54.7225 30.3463 54.4835 30.925 54.4835C31.0575 54.4835 31.236 54.5067 31.3915 54.5497C31.5585 54.5987 31.7715 54.7024 31.7715 54.8494C31.7715 54.9471 31.7139 55.0508 31.5901 55.0508C31.5613 55.0508 31.5325 55.048 31.5037 55.0337C31.3368 54.9557 31.1611 54.8809 30.9308 54.8809C30.6054 54.8809 30.4096 54.9675 30.4096 55.1574C30.4096 55.3359 30.5565 55.3992 30.9941 55.5259C31.4922 55.6729 31.8464 55.8138 31.8464 56.2803C31.8464 56.7035 31.5268 57.0029 30.9049 57.0029L30.902 57Z" fill="#CC1B59"/>
<path d="M32.8944 56.9857C32.7706 56.9857 32.667 56.8848 32.667 56.7582V54.7256C32.667 54.6015 32.7678 54.4981 32.8944 54.4981C33.0211 54.4981 33.1133 54.5987 33.1133 54.7256V55.6181L34.2102 54.5586C34.2506 54.5182 34.3024 54.501 34.3571 54.501C34.4665 54.501 34.573 54.5872 34.573 54.7052C34.573 54.7743 34.55 54.8262 34.5068 54.8666L33.8734 55.4768L34.6133 56.6573C34.6392 56.6948 34.6508 56.741 34.6508 56.7814C34.6508 56.8791 34.5817 56.9857 34.4464 56.9857C34.3628 56.9857 34.2966 56.9542 34.2621 56.8937L33.5653 55.7734L33.1161 56.2083V56.7582C33.1161 56.8819 33.0211 56.9857 32.8973 56.9857H32.8944Z" fill="#CC1B59"/>
<path d="M36.9602 56.4183H35.8805L35.6732 56.8648C35.6329 56.9367 35.5811 56.9857 35.4861 56.9857C35.3536 56.9857 35.2759 56.8848 35.2759 56.7785C35.2759 56.7496 35.2816 56.7209 35.2989 56.692L36.2318 54.619C36.2635 54.5471 36.3268 54.5038 36.4218 54.5038C36.5169 54.5038 36.5773 54.5439 36.6119 54.619L37.5447 56.692C37.5591 56.7209 37.5649 56.7496 37.5649 56.7785C37.5649 56.8848 37.4843 56.9857 37.3547 56.9857C37.2597 56.9857 37.2078 56.9424 37.1704 56.8648L36.9631 56.4183H36.9602ZM36.4218 55.1027L36.0418 56.027H36.799L36.4189 55.1027H36.4218Z" fill="#CC1B59"/>
<path d="M56.0815 26.0367C55.1801 26.0367 54.9844 26.5089 54.5498 27.174C54.5498 27.174 49.6176 35.6706 49.5629 35.7541C49.5082 35.8376 49.462 35.8347 49.4216 35.7512C48.9008 34.7291 45.4167 27.413 45.1344 26.8573C44.8293 26.2584 44.3199 26.0367 43.6748 26.0367H33.2117L33.6838 22.2015C33.6838 22.2015 33.7213 22 33.4967 22C33.3067 22 30.3583 22 30.3583 22H30.3324C29.1462 22.0777 28.1672 22.9905 28.0031 24.1767L27.7756 26.0338H24.1766C16.3624 26.0367 13.6703 31.6569 13.3392 34.6255L12.0147 45.4053C12.0147 45.4053 11.8794 46.0013 12.4437 46.0013H16.0399C16.9497 46.0013 17.4622 45.2527 17.5486 44.5415L18.6974 35.2416C18.7953 34.5765 19.5007 31.4324 24.1766 31.4324H27.1134L26.5318 36.1774C26.4167 36.8799 25.9704 40.5193 28.2853 43.2689C29.3362 44.5156 31.3459 46.0013 34.9651 46.0013H35.0457C36.7272 45.9927 37.0641 45.984 37.4182 45.984C37.7723 45.984 37.8472 45.5493 37.8472 45.5493C37.8472 45.5493 37.8846 45.3074 38.066 43.5914C38.2417 41.9387 37.4902 40.7755 35.5294 40.7755C33.5687 40.7755 34.9277 40.787 34.9277 40.787C33.704 40.787 32.751 40.381 32.2961 39.8484C31.6022 39.0364 31.7836 37.5018 31.8584 37.0238L32.5465 31.4324H41.2102C41.2102 31.4324 47.2363 43.3323 47.9993 44.8151C48.7623 46.2979 49.4967 46.4217 50.366 44.9763C51.135 43.6979 59.1825 29.8027 60.9875 26.6644C61.3649 26.0108 60.7833 26.0338 60.7833 26.0338H56.0786L56.0815 26.0367Z" fill="#CC1B59"/>
<path d="M64.8107 34.2713C66.4029 34.2713 67.6986 32.9757 67.6986 31.3864C67.6986 29.797 66.4029 28.4985 64.8107 28.4985C63.2186 28.4985 61.9258 29.7941 61.9258 31.3864C61.9258 32.9786 63.2214 34.2713 64.8107 34.2713Z" fill="#CC1B59"/>
<path d="M64.8107 43.528C66.4029 43.528 67.6986 42.2352 67.6986 40.643C67.6986 39.0508 66.4029 37.7551 64.8107 37.7551C63.2186 37.7551 61.9258 39.0508 61.9258 40.643C61.9258 42.2352 63.2214 43.528 64.8107 43.528Z" fill="#CC1B59"/>
</g>
</g>
<defs>
<clipPath id="clip0_596_257">
<rect width="56" height="35" fill="white" transform="translate(12 22)"/>
</clipPath>
</defs>
</svg>
