<?xml version="1.0" encoding="utf-8"?>
<!-- Generator: Adobe Illustrator 27.0.0, SVG Export Plug-In . SVG Version: 6.00 Build 0)  -->
<svg version="1.1" id="Vrstva_1" xmlns="http://www.w3.org/2000/svg" xmlns:xlink="http://www.w3.org/1999/xlink" x="0px" y="0px"
	 viewBox="0 0 80 80" style="enable-background:new 0 0 80 80;" xml:space="preserve">
<style type="text/css">
	.st0{fill:#FFFFFF;}
	.st1{fill:#2A5187;}
	.st2{fill:#010200;}
</style>
<g>
	<circle class="st0" cx="40" cy="40" r="40"/>
</g>
<g>
	<path class="st1" d="M72.81,40.09c-0.12-0.41-0.24-0.82-0.36-1.22c-0.04-0.15-0.09-0.3-0.13-0.45c-17.14,9.51-34.33-3.9-51.54-3.66
		c-4.69,0-9.37,0.96-14.05,3.6c0.16,0.52,0.31,1.04,0.46,1.56c0.12,0.41,0.24,0.82,0.36,1.22c0.04,0.15,0.09,0.3,0.13,0.45
		c17.14-9.51,34.33,3.9,51.54,3.66c4.69,0,9.37-0.96,14.05-3.6C73.12,41.13,72.97,40.61,72.81,40.09z"/>
	<g>
		<path class="st2" d="M40,63.5c-12.96,0-23.5-10.54-23.5-23.5S27.04,16.5,40,16.5c12.96,0,23.5,10.54,23.5,23.5S52.96,63.5,40,63.5
			z M40,20.01c-11.02,0-19.99,8.97-19.99,19.99S28.98,59.99,40,59.99c11.02,0,19.99-8.97,19.99-19.99S51.02,20.01,40,20.01z"/>
	</g>
</g>
</svg>
