<?xml version="1.0" encoding="utf-8"?>
<!-- Generator: Adobe Illustrator 27.0.0, SVG Export Plug-In . SVG Version: 6.00 Build 0)  -->
<svg version="1.1" id="Vrstva_1" xmlns="http://www.w3.org/2000/svg" xmlns:xlink="http://www.w3.org/1999/xlink" x="0px" y="0px"
	 viewBox="0 0 80 80" style="enable-background:new 0 0 80 80;" xml:space="preserve">
<style type="text/css">
	.st0{fill:#FFFFFF;}
	.st1{fill:#272D4D;}
	.st2{fill:#C01020;}
</style>
<g>
	<circle class="st0" cx="40" cy="40" r="40"/>
</g>
<g>
	<path class="st1" d="M25.38,20.56c3.94-0.31,8.2-0.46,11.66-0.52v5.12c-1.64,0.06-3.47,0.17-5.18,0.35
		c-6.04,0.65-7.17,1.96-7.9,7.76c-0.3,2.42-0.4,4.98-0.4,6.73c0,1.75,0.09,4.31,0.4,6.72c0.73,5.8,1.86,7.11,7.9,7.76
		c1.72,0.18,3.55,0.29,5.18,0.35v5.12c-3.46-0.06-7.72-0.21-11.66-0.52c-10.83-0.87-12.86-2.63-14.17-10.41
		c-0.55-3.24-0.71-6.69-0.71-9.03c0-2.34,0.16-5.79,0.71-9.03C12.52,23.19,14.54,21.43,25.38,20.56z"/>
	<path class="st2" d="M69.5,40c0,2.34-0.16,5.79-0.71,9.03c-1.31,7.78-3.33,9.54-14.17,10.41c-3.94,0.31-8.2,0.47-11.66,0.52v-5.12
		c1.64-0.06,3.47-0.17,5.18-0.35c6.04-0.65,7.17-1.96,7.9-7.76c0.3-2.41,0.4-4.98,0.4-6.72c0-1.74-0.09-4.31-0.4-6.73
		c-0.73-5.8-1.86-7.11-7.9-7.76c-1.72-0.18-3.55-0.29-5.18-0.35v-5.12c3.46,0.06,7.72,0.21,11.66,0.52
		c10.84,0.87,12.86,2.63,14.17,10.41C69.34,34.21,69.5,37.65,69.5,40"/>
</g>
</svg>
