<svg width="226" height="110" viewBox="0 0 226 110" fill="none" xmlns="http://www.w3.org/2000/svg">
<g clip-path="url(#clip0_164_747)">
<path fill-rule="evenodd" clip-rule="evenodd" d="M225.931 110H0V0H225.931V110Z" fill="#00539F"/>
<path fill-rule="evenodd" clip-rule="evenodd" d="M87.6307 20.8589H138.289V87.4912H87.6307V20.8589ZM141.985 20.8589H192.644V87.4912H141.985V20.8589ZM152.941 31.829V77.2321H162.113V63.3698L164.092 63.4334C176.447 63.4334 182.514 55.4042 182.514 47.4385C182.514 39.4729 176.638 31.829 164.934 31.829H152.938H152.941ZM162.102 40.614H165.405C170.646 40.6926 173.26 42.4735 173.634 47.6967C173.309 53.1181 170.245 54.8467 164.967 54.9365H162.098V40.614H162.102ZM112.962 78.6052L91.9848 31.2865H102.17L112.595 55.2171L112.958 56.6389L113.325 55.1946L123.746 31.2827H133.932L112.954 78.6014L112.962 78.6052ZM76.1658 40.6215V31.8365H41.0529V40.6215H53.7373V77.2321H63.4815V40.6215H76.1658ZM33.28 20.8589H83.9388V87.4912H33.28V20.8589ZM29.5806 17.5664H196.34V90.7838H29.5843V17.5664H29.5806Z" fill="white"/>
</g>
<defs>
<clipPath id="clip0_164_747">
<rect width="225.931" height="110" fill="white"/>
</clipPath>
</defs>
</svg>
