<svg width="23" height="23" viewBox="0 0 23 23" fill="none" xmlns="http://www.w3.org/2000/svg">
<g clip-path="url(#clip0_164_479)">
<path d="M11.5 23C17.8513 23 23 17.8513 23 11.5C23 5.14873 17.8513 0 11.5 0C5.14873 0 0 5.14873 0 11.5C0 17.8513 5.14873 23 11.5 23Z" fill="#F0F0F0"/>
<path d="M2.37734 4.49857C1.47401 5.67386 0.792856 7.02848 0.39624 8.50007H6.37885L2.37734 4.49857Z" fill="#0052B4"/>
<path d="M22.6039 8.50009C22.2072 7.02854 21.526 5.67392 20.6228 4.49863L16.6213 8.50009H22.6039Z" fill="#0052B4"/>
<path d="M0.39624 14.5001C0.7929 15.9716 1.47405 17.3262 2.37734 18.5015L6.37871 14.5001H0.39624Z" fill="#0052B4"/>
<path d="M18.5015 2.37732C17.3262 1.47399 15.9716 0.792839 14.5 0.396179V6.37874L18.5015 2.37732Z" fill="#0052B4"/>
<path d="M4.49854 20.6227C5.67383 21.526 7.02845 22.2072 8.5 22.6039V16.6213L4.49854 20.6227Z" fill="#0052B4"/>
<path d="M8.49995 0.396179C7.0284 0.792839 5.67378 1.47399 4.49854 2.37728L8.49995 6.37869V0.396179Z" fill="#0052B4"/>
<path d="M14.5 22.6039C15.9716 22.2072 17.3262 21.526 18.5014 20.6228L14.5 16.6213V22.6039Z" fill="#0052B4"/>
<path d="M16.6213 14.5001L20.6228 18.5015C21.526 17.3263 22.2072 15.9716 22.6039 14.5001H16.6213Z" fill="#0052B4"/>
<path d="M22.9027 10H13.0001H13V0.0973457C12.509 0.0334219 12.0084 0 11.5 0C10.9915 0 10.491 0.0334219 10 0.0973457V9.99992V9.99997H0.0973457C0.0334219 10.491 0 10.9916 0 11.5C0 12.0085 0.0334219 12.509 0.0973457 13H9.99992H9.99997V22.9027C10.491 22.9666 10.9915 23 11.5 23C12.0084 23 12.509 22.9666 13 22.9027V13.0001V13H22.9027C22.9666 12.509 23 12.0085 23 11.5C23 10.9916 22.9666 10.491 22.9027 10Z" fill="#D80027"/>
<path d="M14.5 14.5001L19.6317 19.6318C19.8677 19.3958 20.0929 19.1492 20.3077 18.8935L15.9142 14.5H14.5V14.5001Z" fill="#D80027"/>
<path d="M8.4999 14.5001H8.49981L3.36816 19.6317C3.60409 19.8677 3.85076 20.0929 4.10646 20.3077L8.4999 15.9142V14.5001Z" fill="#D80027"/>
<path d="M8.50006 8.50009V8.5L3.36837 3.36826C3.13235 3.60419 2.9072 3.85085 2.69238 4.10655L7.08588 8.50004H8.50006V8.50009Z" fill="#D80027"/>
<path d="M14.5 8.50008L19.6317 3.36829C19.3958 3.13227 19.1491 2.90712 18.8935 2.69235L14.5 7.08585V8.50008Z" fill="#D80027"/>
</g>
<defs>
<clipPath id="clip0_164_479">
<rect width="23" height="23" fill="white"/>
</clipPath>
</defs>
</svg>
