<svg width="583" height="261" viewBox="0 0 583 261" fill="none" xmlns="http://www.w3.org/2000/svg">
<g clip-path="url(#clip0_406_93)">
<path d="M201.711 12.3123C201.711 5.50594 196.218 0 189.41 0C182.603 0 177.109 5.49834 177.109 12.3123C177.109 19.1263 182.603 24.6246 189.41 24.6246C196.218 24.6246 201.711 19.1263 201.711 12.3123ZM12.3006 118.188C5.50072 118.188 0 123.686 0 130.5C0 137.314 5.49312 142.812 12.3006 142.812C19.1082 142.812 24.6013 137.314 24.6013 130.5C24.6013 123.686 19.1082 118.188 12.3006 118.188ZM91.0201 216.679C84.2126 216.679 78.7195 222.177 78.7195 228.991C78.7195 235.805 84.2126 241.303 91.0201 241.303C97.8277 241.303 103.321 235.805 103.321 228.991C103.321 222.177 97.8277 216.679 91.0201 216.679ZM169.74 236.375C162.932 236.375 157.439 241.874 157.439 248.688C157.439 255.502 162.932 261 169.74 261C176.547 261 182.04 255.502 182.04 248.688C182.04 241.874 176.547 236.375 169.74 236.375ZM172.779 133.527C165.994 131.998 163.631 130.667 163.631 127.8C163.631 125.101 166.009 122.979 170.819 122.979C176.54 122.979 180.604 126.743 180.604 126.743L184.905 121.891C184.905 121.891 179.731 116.758 170.826 116.758C162.415 116.758 156.945 122.157 156.945 127.641C156.945 134.751 162.666 137.938 170.75 139.573C176.547 140.721 179.32 142.348 179.32 145.619C179.32 148.341 176.578 150.28 171.381 150.28C164.011 150.28 159.718 144.151 159.718 144.151L154.985 148.569C154.985 148.569 160.319 156.494 171.381 156.494C179.313 156.494 186.105 152.493 186.105 145.459C186.105 137.77 179.974 135.139 172.794 133.527H172.779ZM139.448 155.52H146.316V117.747H139.448V155.52ZM110.691 140.234L94.196 98.2933H86.6819L110.539 157.155L134.38 98.2933H127.276L110.698 140.234H110.691ZM142.874 100.993C140.344 100.993 138.224 103.115 138.224 105.647C138.224 108.18 140.344 110.309 142.874 110.309C145.404 110.309 147.532 108.187 147.532 105.647C147.532 103.107 145.412 100.993 142.874 100.993ZM576.139 96.9168V122.416C576.139 122.416 572.302 116.766 563.968 116.766C553.757 116.766 545.673 125.511 545.673 136.63C545.673 147.748 553.757 156.494 563.968 156.494C573.032 156.494 576.709 150.037 576.709 150.037V155.512H583.008V96.9092H576.147L576.139 96.9168ZM576.139 143.58C576.139 143.58 572.553 150.121 565.031 150.121C557.51 150.121 552.533 144.075 552.533 136.63C552.533 129.184 557.525 123.138 565.031 123.138C572.538 123.138 576.139 129.679 576.139 129.679V143.573V143.58ZM379.777 122.416C379.777 122.416 375.941 116.766 367.606 116.766C357.395 116.766 349.311 125.511 349.311 136.63C349.311 147.748 357.395 156.494 367.606 156.494C376.67 156.494 380.355 150.037 380.355 150.037V155.512H386.638V96.9092H379.777V122.408V122.416ZM379.777 143.58C379.777 143.58 376.184 150.121 368.67 150.121C361.155 150.121 356.179 144.075 356.179 136.63C356.179 129.184 361.163 123.138 368.67 123.138C376.176 123.138 379.777 129.679 379.777 129.679V143.573V143.58ZM523.115 116.766C514.948 116.766 511.521 123.07 511.521 123.07V117.754H505.147V155.528H512.007V129.527C512.007 129.527 515.274 123.146 521.398 123.146C526.466 123.146 530.47 125.922 530.47 132.386V155.52H537.33V131.238C537.33 121.922 530.637 116.766 523.115 116.766ZM422.894 155.52H429.747V132.789H452.837V126.249H429.747V104.826H454.333V98.2857H422.894V155.52ZM210.98 116.766C199.629 116.766 192.115 125.602 192.115 136.63C192.115 147.657 200.366 156.494 211.793 156.494C221.761 156.494 227.482 149.056 227.482 149.056L223.151 144.561C223.151 144.561 219.231 150.113 211.793 150.113C204.355 150.113 199.219 144.805 198.808 139.078H229.275C229.359 138.181 229.359 137.611 229.359 136.873C229.359 124.69 221.518 116.758 210.98 116.758V116.766ZM198.968 133.359C199.462 129.435 202.812 123.138 210.98 123.138C218.585 123.138 222.414 129.108 222.665 133.359H198.976H198.968ZM325.044 116.766C315.98 116.766 310.912 120.614 310.912 120.614L313.769 126.34C313.769 126.34 318.115 123.146 325.036 123.146C328.06 123.146 334.594 124.211 334.594 132.059V134.105C334.594 134.105 330.18 130.994 323.235 130.994C314.741 130.994 308.291 136.226 308.291 143.58C308.291 151.756 315.562 156.501 322.339 156.501C330.917 156.501 335.171 150.045 335.171 150.045V155.52H341.462V130.667C341.462 123.633 336.152 116.766 325.044 116.766ZM334.602 144.729C334.602 144.729 330.522 150.455 323.82 150.455C319.573 150.455 315.159 148.493 315.159 143.58C315.159 139.656 318.844 136.713 324.725 136.713C330.605 136.713 334.602 139.413 334.602 139.413V144.721V144.729ZM486.715 143.915C486.715 143.915 483.691 150.121 477.324 150.121C472.256 150.121 468.26 147.345 468.26 140.888V117.754H461.392V142.037C461.392 151.353 468.085 156.501 475.607 156.501C483.774 156.501 487.208 149.718 487.208 149.718V155.528H493.575V117.754H486.715V143.915ZM266.017 123.23C266.017 123.23 262.34 116.766 253.276 116.766C243.065 116.766 234.981 125.511 234.981 136.63C234.981 147.748 243.065 156.494 253.276 156.494C260.22 156.494 264.141 152.493 265.448 150.767V155.999C265.448 164.501 260.463 168.92 252.463 168.92C244.463 168.92 240.125 162.958 240.125 162.958L235.961 168.106C235.961 168.106 242.085 175.3 252.463 175.3C263.404 175.3 272.308 168.76 272.308 155.68V117.747H266.01V123.222L266.017 123.23ZM265.448 143.748C265.448 143.748 261.854 150.121 254.34 150.121C246.826 150.121 241.842 144.075 241.842 136.63C241.842 129.184 246.659 123.138 254.34 123.138C262.021 123.138 265.448 129.519 265.448 129.519V143.748ZM289.13 123.549V117.747H282.755V155.52H289.608V129.519C289.608 129.519 291.789 123.138 298.551 123.138C301.825 123.138 303.801 124.34 303.801 124.34L305.13 117.747C305.13 117.747 302.76 116.758 299.66 116.758C291.857 116.758 289.13 123.542 289.13 123.542V123.549Z" fill="#16BECF"/>
</g>
<defs>
<clipPath id="clip0_406_93">
<rect width="583" height="261" fill="white"/>
</clipPath>
</defs>
</svg>
