<svg width="415" height="60" viewBox="0 0 415 60" fill="none" xmlns="http://www.w3.org/2000/svg">
<g clip-path="url(#clip0_164_773)">
<path d="M22.3648 0.783904C28.2832 0.313562 34.6877 0.0862294 39.885 0V7.69794C37.4236 7.78416 34.6721 7.94878 32.093 8.22315C23.0154 9.19519 21.3222 11.1628 20.2247 19.8876C19.7701 23.525 19.629 27.3739 19.629 30.0078C19.629 32.6418 19.7622 36.4907 20.2247 40.1124C21.3222 48.8294 23.0154 50.797 32.093 51.769C34.6721 52.0434 37.4236 52.208 39.885 52.3021V60C34.6877 59.9138 28.2832 59.6864 22.3648 59.2161C6.08309 57.9148 3.04155 55.2652 1.06611 43.5772C0.24301 38.7092 0 33.5276 0 30.0078C0 26.4881 0.24301 21.3065 1.06611 16.4385C3.04155 4.73478 6.07525 2.08518 22.3648 0.783904Z" fill="#152553"/>
<path d="M88.6831 30C88.6831 33.5197 88.4401 38.7013 87.617 43.5694C85.6416 55.2652 82.6079 57.907 66.3183 59.2083C60.3999 59.6786 53.9954 59.9138 48.7981 59.9922V52.2942C51.2596 52.208 54.0111 52.0434 56.5901 51.7612C65.6677 50.7891 67.3609 48.8215 68.4584 40.1045C68.9131 36.4829 69.0542 32.6182 69.0542 30C69.0542 27.3818 68.9131 23.5171 68.4584 19.8798C67.3609 11.155 65.6677 9.18735 56.5901 8.21531C54.0111 7.94095 51.2596 7.77633 48.7981 7.6901V0C53.9954 0.0862294 60.3999 0.313562 66.3183 0.783904C82.6079 2.08518 85.6416 4.73478 87.617 16.4228C88.4401 21.2908 88.6831 26.4724 88.6831 29.9922" fill="#C1001F"/>
<path d="M361.866 21.087H354.646V44.4238H361.866V21.087ZM122.642 13.2087L127.353 6.64746H120.486L118.464 9.9477L116.441 6.64746H109.527L114.238 13.2087H122.65H122.642ZM111.15 29.851C111.15 24.348 114.317 20.8204 120 20.8204C122.822 20.8204 124.931 21.4397 127.086 21.8317L127.706 16.1092C125.017 15.1371 122.069 14.6119 119.028 14.6119C108.72 14.6119 103.35 21.4397 103.35 29.8902C103.35 38.3407 108.72 45.0823 119.028 45.0823C122.069 45.0823 125.017 44.5571 127.706 43.538L127.086 37.8547C124.931 38.2545 122.861 38.8267 120 38.8267C114.364 38.8267 111.15 35.746 111.15 29.8432M146.151 30.0156H137.034C137.787 27.5463 139.543 25.6963 142.098 25.6963C144.473 25.6963 146.151 27.0211 146.151 30.0156ZM153.065 35.26C154.696 28.1735 151.348 20.4207 142.145 20.4207C133.953 20.4207 129.595 25.8766 129.595 32.7515C129.595 41.3822 135.584 45.0823 142.67 45.0823C145.837 45.0823 149.318 44.4238 152.226 43.3655L151.654 38.2153C148.84 38.8737 146.284 39.3127 143.995 39.3127C140.381 39.3127 137.826 38.1212 136.948 35.26H153.065ZM163.805 27.6012C163.805 26.4097 164.51 25.7512 167.191 25.7512C169.041 25.7512 171.863 26.104 175.43 27.1152L176.049 22.1844C173.274 21.0399 169.927 20.4207 166.846 20.4207C161.429 20.4207 156.632 22.2707 156.632 27.8207C156.632 37.4235 169.974 34.6877 169.974 37.9487C169.974 39.2265 169.002 39.7517 166.493 39.7517C163.985 39.7517 161.077 39.446 157.424 38.3877L156.851 43.3185C159.673 44.51 163.413 45.0823 166.893 45.0823C172.396 45.0823 177.154 42.9265 177.154 37.7292C177.154 28.0872 163.812 30.8622 163.812 27.6012M181.435 44.4238H188.654V12.8089H181.435V44.4316V44.4238ZM197.379 31.8735V31.6932L205.704 21.0791H197.512L189.234 32.1792L197.912 44.4238H206.59L197.387 31.8735H197.379ZM220.881 19.1037L226.87 12.0094H218.764L215.064 19.1037H220.881ZM222.245 37.7763C221.28 38.9208 219.43 39.8458 217.886 39.8458C216.122 39.8458 214.719 39.007 214.719 37.3765C214.719 35.0013 217.188 33.6765 222.252 34.868V37.7763H222.245ZM222.684 44.4238H229.464V28.5733C229.464 22.5372 224.487 20.4285 218.984 20.4285C215.37 20.4285 211.544 21.3065 208.808 22.7645L209.428 27.8756C212.508 26.684 215.636 26.2921 217.839 26.2921C220.528 26.2921 222.245 27.1701 222.245 29.3336V30.2116C214.319 28.4949 207.272 30.9171 207.272 37.8704C207.272 42.1897 210.658 45.0901 214.892 45.0901C217.847 45.0901 220.269 44.2121 222.245 42.4013L222.684 44.4238ZM252.699 36.9375V26.3705H257.983V21.087H252.699V15.4507H246.31L245.472 21.087L241.944 21.526V26.3705H245.472V37.6901C245.472 45.4821 252.252 46.0151 258.414 44.0318L257.842 38.9208C254.142 39.5401 252.691 39.007 252.691 36.9375M277.032 30.0235H267.915C268.66 27.5542 270.423 25.7042 272.979 25.7042C275.354 25.7042 277.032 27.029 277.032 30.0235ZM283.946 35.2678C285.576 28.1813 282.229 20.4285 273.026 20.4285C264.834 20.4285 260.476 25.8845 260.476 32.7593C260.476 41.3901 266.465 45.0901 273.559 45.0901C276.726 45.0901 280.206 44.4316 283.115 43.3734L282.542 38.2231C279.728 38.8816 277.173 39.3206 274.884 39.3206C271.27 39.3206 268.714 38.129 267.836 35.2678H283.953H283.946ZM288.704 44.4238H295.924V12.8089H288.704V44.4316V44.4238ZM317.034 30.0235H307.917C308.662 27.5542 310.426 25.7042 312.981 25.7042C315.357 25.7042 317.034 27.029 317.034 30.0235ZM323.948 35.2678C325.579 28.1813 322.232 20.4285 313.028 20.4285C304.837 20.4285 300.478 25.8845 300.478 32.7593C300.478 41.3901 306.467 45.0901 313.562 45.0901C316.729 45.0901 320.209 44.4316 323.117 43.3734L322.545 38.2231C319.731 38.8816 317.175 39.3206 314.886 39.3206C311.273 39.3206 308.717 38.129 307.839 35.2678H323.956H323.948ZM343.13 44.4238L351.981 21.087H344.408L338.858 37.1178H338.686L333.136 21.087H325.383L334.28 44.4238H343.13ZM362.524 15.3566C362.524 12.9814 361.513 11.7428 358.252 11.7428C354.991 11.7428 353.98 12.9736 353.98 15.3566C353.98 17.7397 354.991 18.9234 358.252 18.9234C361.513 18.9234 362.524 17.6927 362.524 15.3566ZM366.781 44.4238H387.742V39.1403H376.023V38.96L387.296 26.3626V21.0791H367.212V26.3626H378.092V26.5351L366.773 39.1716V44.4159L366.781 44.4238ZM406.713 30.0235H397.596C398.341 27.5542 400.104 25.7042 402.66 25.7042C405.035 25.7042 406.713 27.029 406.713 30.0235ZM402.707 20.4207C394.515 20.4207 390.157 25.8766 390.157 32.7515C390.157 41.3822 396.146 45.0823 403.232 45.0823C406.399 45.0823 409.888 44.4238 412.788 43.3655L412.216 38.2153C409.394 38.8737 406.838 39.3127 404.557 39.3127C400.943 39.3127 398.388 38.1212 397.51 35.26H413.627C415.257 28.1735 411.91 20.4207 402.707 20.4207Z" fill="#152553"/>
</g>
<defs>
<clipPath id="clip0_164_773">
<rect width="414.027" height="60" fill="white"/>
</clipPath>
</defs>
</svg>
