<svg width="23" height="23" viewBox="0 0 23 23" fill="none" xmlns="http://www.w3.org/2000/svg">
<g clip-path="url(#clip0_164_476)">
<path d="M11.5 23C17.8513 23 23 17.8513 23 11.5C23 5.14873 17.8513 0 11.5 0C5.14873 0 0 5.14873 0 11.5C0 17.8513 5.14873 23 11.5 23Z" fill="#F0F0F0"/>
<path d="M10.4999 11.5C10.4999 11.5 3.3749 19.6333 3.36816 19.6317C5.44921 21.7128 8.32426 23 11.4999 23C17.8512 23 22.9999 17.8512 22.9999 11.5H10.4999Z" fill="#D80027"/>
<path d="M3.36826 3.36826C-1.12275 7.85928 -1.12275 15.1407 3.36826 19.6318C5.22412 17.7759 7.009 15.991 11.5 11.5L3.36826 3.36826Z" fill="#0052B4"/>
</g>
<defs>
<clipPath id="clip0_164_476">
<rect width="23" height="23" fill="white"/>
</clipPath>
</defs>
</svg>
