<svg width="76" height="76" viewBox="0 0 76 76" fill="none" xmlns="http://www.w3.org/2000/svg">
<circle cx="38" cy="38" r="38" fill="#535C91"/>
<path d="M55.3045 23.4344C55.5406 23.4344 55.7597 23.5829 55.84 23.8191L61.5926 40.9503C61.5975 40.9649 61.6048 40.9795 61.6097 40.9941C61.7095 41.2887 61.5488 41.61 61.2542 41.7098L53.3764 44.3536C53.3618 44.3609 53.3472 44.3658 53.3326 44.3707C53.2741 44.3901 53.2133 44.3999 53.1524 44.3999C52.9163 44.3999 52.6972 44.2514 52.6168 44.0152L52.1105 42.5107L50.6936 44.0444C50.5816 44.1662 50.4307 44.227 50.2773 44.227C50.141 44.227 50.0047 44.1783 49.8951 44.0785C49.8464 44.0347 49.8075 43.9836 49.7783 43.93L42.1098 36.2956C40.4787 34.6645 39.2444 33.8222 38.1173 33.8222C38.0929 33.8222 38.0686 33.8222 38.0442 33.8222C36.9001 33.8587 35.7315 34.779 34.2222 36.6364C33.9033 37.0308 33.3482 37.2231 32.7299 37.2231C32.5108 37.2231 32.2844 37.1988 32.058 37.1501C31.6514 37.0625 31.2351 36.8994 30.8651 36.6632C30.4829 36.4173 30.1469 36.0936 29.9083 35.6943C29.4628 34.9421 29.3703 33.9464 29.9911 32.7486C30.0008 32.7291 30.0106 32.7121 30.0228 32.6951C32.2746 28.4299 35.3274 27.0593 38.7089 27.0593C41.5304 27.0593 44.5807 28.0136 47.5848 29.041L46.8618 26.8889C46.8569 26.8743 46.8496 26.8597 46.8448 26.8451C46.745 26.5505 46.9056 26.2292 47.2002 26.1294L55.0781 23.4856C55.0927 23.4807 55.1073 23.4734 55.1219 23.4685C55.1827 23.4491 55.2436 23.4393 55.302 23.4393M16.2901 24.1672C16.3144 24.1672 16.3387 24.1672 16.3631 24.1721C17.0666 24.2622 24.6499 25.2262 24.6524 25.2286C24.9835 25.27 25.2026 25.5865 25.1344 25.9103L24.8666 28.0039H32.6227C31.1864 29.0629 30.0203 30.4822 29.0538 32.1108C29.0319 32.1498 29.0076 32.1863 28.9881 32.2277L28.7033 32.7778L28.7252 32.8144C28.2943 33.9512 28.287 35.1636 28.937 36.2664C29.2608 36.8141 29.7209 37.2694 30.2565 37.6126C30.7312 37.917 31.2692 38.1361 31.8242 38.2529C32.1164 38.3162 32.4231 38.3503 32.7299 38.3503C33.6233 38.3503 34.5216 38.0606 35.101 37.3473C35.6828 36.6291 37.051 34.9834 38.0832 34.9494C38.0954 34.9494 38.1051 34.9494 38.1173 34.9494C39.1422 34.9494 40.6637 36.4465 41.3161 37.0965L48.897 44.6433C48.9652 44.7407 49.0455 44.8308 49.1331 44.9111C49.4594 45.2105 49.8683 45.3566 50.2798 45.3566C50.7374 45.3566 51.1927 45.174 51.5262 44.8113L51.8622 44.4461L53.8292 46.4132C54.3428 46.9268 54.5985 47.6012 54.5985 48.2779C54.5985 48.9547 54.3428 49.6315 53.8292 50.1427C53.3155 50.6564 52.6387 50.9144 51.9644 50.9144C51.2901 50.9144 50.6108 50.6564 50.0996 50.1427L50.0363 50.0794C49.9462 50.5931 49.7028 51.0849 49.306 51.4792L49.2962 51.4914C48.785 51.9978 48.1107 52.2534 47.4388 52.2534C46.7669 52.2534 46.0852 51.9953 45.574 51.4841L45.479 51.3892C45.389 51.9028 45.1455 52.397 44.7487 52.7914C44.2375 53.3026 43.5607 53.5607 42.8839 53.5607C42.2071 53.5631 41.5328 53.3075 41.0191 52.7914L39.6145 51.3892C39.522 51.9028 39.2809 52.3946 38.8841 52.7914L38.8744 52.8011C38.3632 53.3075 37.6913 53.5631 37.0169 53.5631C36.3426 53.5631 35.6658 53.3051 35.1521 52.7914C35.1424 52.7817 35.1327 52.7719 35.1254 52.7622C33.2387 50.8877 30.9941 49.2298 28.8299 47.6304C26.673 46.0383 24.5939 44.4997 22.9775 42.837L22.8509 43.8351C22.8144 44.1199 22.5709 44.3293 22.291 44.3293C22.2666 44.3293 22.2423 44.3293 22.2179 44.3244C21.5241 44.2368 13.9286 43.2679 13.9286 43.2679C13.6195 43.2289 13.4004 42.9465 13.4393 42.6373C13.6365 41.0915 15.7326 24.6687 15.7326 24.6663C15.7691 24.3814 16.0101 24.1721 16.2901 24.1721M55.3045 21C54.9782 21 54.6545 21.0536 54.3453 21.1582C54.3185 21.168 54.2893 21.1777 54.2601 21.1875L46.5234 23.785C46.4893 23.7947 46.4577 23.8045 46.4236 23.8167C45.5618 24.1088 44.9167 24.7563 44.6002 25.5427C42.6405 25.0022 40.654 24.62 38.7089 24.62C36.7978 24.62 35.0669 24.9949 33.5235 25.7423C33.2435 25.6303 32.9368 25.5695 32.6227 25.5695H27.5713C27.5299 25.029 27.3449 24.5007 27.026 24.0528C26.5415 23.3711 25.7893 22.9208 24.9615 22.8137C24.8617 22.8015 24.7692 22.7893 24.6889 22.7771L23.9537 22.6822L21.6166 22.3852L17.0228 21.8034L16.6674 21.7571C16.5432 21.7401 16.4142 21.7328 16.2876 21.7328C14.7831 21.7328 13.5051 22.8599 13.3152 24.3522C13.3152 24.3595 13.3152 24.3693 13.3127 24.3766C13.2713 24.7125 12.2854 32.4273 11.633 37.542C11.3287 39.9448 11.0852 41.8461 11.0244 42.3257C10.815 43.9641 11.9787 45.4686 13.6195 45.6804C13.6389 45.6804 13.6584 45.6853 13.6779 45.6877L13.8507 45.7096L14.4813 45.7899L16.5432 46.0529L21.0762 46.6298L21.9088 46.7369C22.0329 46.754 22.1619 46.7613 22.2885 46.7613C22.6853 46.7613 23.0675 46.6834 23.4181 46.5398C24.684 47.5963 26.0473 48.6017 27.3814 49.5901C29.4628 51.1287 31.6149 52.7184 33.3677 54.4517C33.392 54.476 33.4115 54.4979 33.4285 54.515C34.3828 55.4717 35.6585 56 37.0145 56C38.0808 56 39.0959 55.6738 39.9456 55.07C40.7952 55.6738 41.8103 56 42.8766 56C42.9302 56 42.9862 56 43.0397 55.9951C44.3032 55.9562 45.4863 55.4596 46.3944 54.5856C46.7328 54.6562 47.0809 54.6903 47.4339 54.6903C48.7631 54.6903 50.0168 54.1839 50.9663 53.2612C50.9663 53.2612 50.9687 53.2588 50.9711 53.2564C51.2925 53.3197 51.6236 53.3513 51.9571 53.3513C53.3155 53.3513 54.5887 52.823 55.5455 51.8663C56.4681 50.9461 56.9891 49.724 57.0232 48.4143C57.0232 48.3705 57.0256 48.3266 57.0256 48.2804C57.0256 47.4332 56.8211 46.6201 56.434 45.8946L61.9237 44.0518C61.9578 44.042 61.9894 44.0323 62.0235 44.0201C63.5791 43.4943 64.4239 41.8072 63.9175 40.2491C63.9029 40.2053 63.8883 40.1639 63.8761 40.1323L58.1795 23.1472C58.1698 23.1107 58.1576 23.0766 58.1455 23.0401C57.734 21.8204 56.5923 21 55.3045 21Z" fill="white"/>
</svg>
