<svg width="76" height="76" viewBox="0 0 76 76" fill="none" xmlns="http://www.w3.org/2000/svg">
<circle cx="38" cy="38" r="38" fill="#535C91"/>
<path d="M55.6737 20.3238C50.9522 15.6023 44.6751 13 38 13C31.3249 13 25.0374 15.6023 20.3238 20.3238C15.5998 25.0555 13 31.3352 13 38C13 43.8559 15.0596 49.5438 18.8016 54.0146C18.8068 54.0197 18.8146 54.0275 18.8197 54.0352C19.2926 54.596 19.7992 55.1491 20.3238 55.684C25.0478 60.408 31.3249 63.0078 38 63.0078C44.6751 63.0078 50.9626 60.4054 55.6762 55.684C60.4002 50.9522 63 44.6751 63 38.0078C63 31.3404 60.3977 25.0348 55.6762 20.3212L55.6737 20.3238ZM39.7676 26.8412C40.5791 26.8412 41.4086 26.8283 42.2976 26.7999C42.8455 28.5572 44.458 29.7588 46.3239 29.7588C46.3755 29.7588 46.4272 29.7588 46.4815 29.7563C46.6908 31.0639 46.851 32.4077 46.957 33.7644C45.484 34.1986 44.3572 35.4106 44.0316 36.9146H31.8805C31.5601 35.4519 30.4695 34.2528 29.0456 33.7954C29.2497 31.1182 29.6477 28.583 30.2266 26.252C33.3018 26.6448 36.5115 26.8438 39.7702 26.8438L39.7676 26.8412ZM31.7797 39.0906H44.1324C44.5588 40.4344 45.639 41.4836 46.9906 41.8712C46.8924 43.277 46.7322 44.6777 46.5203 46.0448C44.6234 46.0913 43.0083 47.3886 42.5431 49.2079C41.6128 49.1769 40.6824 49.1588 39.7702 49.1588C36.5115 49.1588 33.3018 49.3578 30.2266 49.7506C29.6193 47.3007 29.2136 44.6441 29.0197 41.8402C30.3248 41.4319 31.3662 40.393 31.7823 39.0906H31.7797ZM52.278 36.912C51.9343 35.3408 50.6964 34.0823 49.1303 33.7076C49.0115 32.1338 48.8254 30.5884 48.5799 29.1076C49.6498 28.4331 50.3501 27.3322 50.5103 26.0789C52.6889 25.7558 54.7433 25.3372 56.6272 24.8333C59.1546 28.3969 60.5889 32.5602 60.7956 36.912H52.278ZM50.2261 23.9184C49.5981 22.3963 48.1432 21.3781 46.4892 21.3161C46.4014 21.0939 46.3135 20.8768 46.2205 20.6597C45.3651 18.6647 44.3908 17.034 43.3132 15.7936C47.877 16.897 52.0247 19.4038 55.1516 22.9623C53.5959 23.3422 51.942 23.6626 50.2261 23.9184ZM42.2046 24.6239C41.3699 24.6498 40.5558 24.6627 39.778 24.6627C36.6795 24.6627 33.674 24.4818 30.8339 24.1278C31.1182 23.2284 31.4412 22.3524 31.8004 21.5177C33.5034 17.4888 35.7646 15.1785 38 15.1785C40.2354 15.1785 42.4966 17.4888 44.2177 21.5177C44.259 21.6133 44.2978 21.7089 44.3366 21.8045C43.2538 22.3834 42.4707 23.4197 42.2046 24.6214V24.6239ZM29.7873 20.67C29.3609 21.6805 28.9784 22.74 28.6476 23.828C26.097 23.4223 23.722 22.8692 21.5745 22.1818C24.5929 19.042 28.4848 16.8143 32.6945 15.8013C31.604 17.0521 30.6271 18.6828 29.7873 20.67ZM28.6399 52.1746C28.9603 53.2341 29.3428 54.2963 29.7795 55.3325C30.6349 57.3302 31.6117 58.9608 32.6894 60.2013C28.4874 59.1908 24.5929 56.9606 21.5668 53.8208C23.7169 53.1333 26.0918 52.5803 28.6399 52.1746ZM39.7599 51.3373C40.6902 51.3373 41.6309 51.3528 42.556 51.3864C42.8429 52.4201 43.5251 53.3194 44.4503 53.8776C44.3624 54.0947 44.2823 54.2937 44.2022 54.4797C42.4992 58.5086 40.238 60.8189 38.0026 60.8189C35.7672 60.8189 33.506 58.5086 31.7823 54.4772C31.4515 53.7096 31.1362 52.8542 30.821 51.8697C33.6688 51.5156 36.6743 51.3347 39.7625 51.3347L39.7599 51.3373ZM43.3029 60.2013C44.396 58.9505 45.3703 57.3198 46.2101 55.3325C46.3187 55.0793 46.4324 54.8002 46.5539 54.4875C48.2181 54.5263 49.7144 53.583 50.4276 52.1048C52.0738 52.3555 53.6579 52.6656 55.1465 53.03C52.0273 56.5962 47.8796 59.1055 43.3055 60.2013H43.3029ZM49.1588 41.91C50.5904 41.5611 51.7327 40.4938 52.1772 39.088H60.7956C60.5889 43.4424 59.1546 47.6031 56.6272 51.1667C54.8441 50.6912 52.9008 50.2881 50.8385 49.9728C50.7377 48.5334 49.903 47.2387 48.6316 46.5513C48.8745 45.0343 49.0528 43.476 49.1588 41.91ZM26.8671 33.6869C25.2571 34.0332 23.9856 35.302 23.6342 36.9094H15.2044C15.4266 32.1674 17.0857 27.7044 20.0188 23.9572C22.4041 24.7842 25.1072 25.4457 28.061 25.9316C27.4769 28.3401 27.0764 30.945 26.8671 33.6869ZM23.735 39.088C24.1872 40.5093 25.3837 41.6024 26.8386 41.9281C27.035 44.8069 27.4459 47.5385 28.061 50.0658C25.0994 50.5517 22.3989 51.2158 20.0188 52.0402C17.0831 48.2853 15.424 43.8223 15.2018 39.088H23.735Z" fill="white"/>
</svg>
